<svg width="48" height="48" viewBox="0 0 48 48" fill="none" xmlns="http://www.w3.org/2000/svg">
<rect x="2.375" y="8.375" width="43.25" height="31.25" rx="5.625" fill="white"/>
<rect x="6" y="17" width="9" height="12" rx="1.38212" fill="#FF6C37"/>
<path d="M10.4999 23C11.454 23 12.2275 22.2265 12.2275 21.2723C12.2275 20.3182 11.454 19.5447 10.4999 19.5447C9.54571 19.5447 8.77222 20.3182 8.77222 21.2723C8.77222 22.2265 9.54571 23 10.4999 23Z" stroke="#12121D" stroke-width="0.4" stroke-linecap="round" stroke-linejoin="round"/>
<path d="M13.4679 26.4553C13.4679 25.1181 12.1377 24.0366 10.4998 24.0366C8.86203 24.0366 7.53174 25.1181 7.53174 26.4553" stroke="#12121D" stroke-width="0.4" stroke-linecap="round" stroke-linejoin="round"/>
<rect x="18.2568" y="18.8536" width="16.0594" height="1.55658" rx="0.77829" fill="#FF6C37"/>
<rect x="15" y="12.064" width="20.5718" height="2.53859" rx="1.2693" fill="#FF6C37"/>
<rect x="18.2568" y="21.8981" width="11.5675" height="1.55658" rx="0.77829" fill="#FF6C37"/>
<rect x="18.2568" y="25.1199" width="9.69645" height="1.55658" rx="0.77829" fill="#FF6C37"/>
<rect x="11.6248" y="33.251" width="26.8753" height="2.99036" rx="1.49518" fill="#FF6C37"/>
<path fill-rule="evenodd" clip-rule="evenodd" d="M12.1962 11.2951C12.4124 11.2951 12.5877 11.1059 12.5877 10.8725C12.5877 10.639 12.4124 10.4498 12.1962 10.4498C11.98 10.4498 11.8047 10.639 11.8047 10.8725C11.8047 11.1059 11.98 11.2951 12.1962 11.2951ZM11.3872 11.2951C11.5619 11.2951 11.7035 11.1624 11.7035 10.9986C11.7035 10.8349 11.5619 10.7022 11.3872 10.7022C11.2126 10.7022 11.071 10.8349 11.071 10.9986C11.071 11.1624 11.2126 11.2951 11.3872 11.2951ZM11.7657 11.3518C11.3821 11.3518 11.071 11.6628 11.071 12.0465C11.071 12.2835 11.1897 12.4927 11.3708 12.6181C11.2772 12.7675 11.2232 12.9443 11.2232 13.1336V13.4986C11.2232 14.036 11.6588 14.4717 12.1962 14.4717C12.7336 14.4717 13.1692 14.036 13.1692 13.4986V13.1336C13.1692 12.9443 13.1152 12.7675 13.0216 12.6181C13.2027 12.4927 13.3214 12.2835 13.3214 12.0465C13.3214 11.6628 13.0103 11.3518 12.6267 11.3518H11.7657ZM11.1334 14.9759C11.1334 14.7287 11.3339 14.5282 11.5811 14.5282H12.9361C13.1833 14.5282 13.3838 14.7287 13.3838 14.9759C13.3838 15.2232 13.1833 15.4237 12.9361 15.4237H11.5811C11.3339 15.4237 11.1334 15.2232 11.1334 14.9759ZM13.3214 10.9986C13.3214 11.1624 13.1798 11.2951 13.0052 11.2951C12.8306 11.2951 12.689 11.1624 12.689 10.9986C12.689 10.8349 12.8306 10.7022 13.0052 10.7022C13.1798 10.7022 13.3214 10.8349 13.3214 10.9986Z" fill="#FF6C37"/>
<path d="M41.5252 24.2247V22.2079C41.5252 21.763 41.3354 21.585 40.8638 21.585H39.6656C39.194 21.585 39.0042 21.763 39.0042 22.2079V24.2247C39.0042 24.6696 39.194 24.8476 39.6656 24.8476H40.8638C41.3354 24.8476 41.5252 24.6696 41.5252 24.2247Z" stroke="#12121D" stroke-width="0.4449" stroke-linecap="round" stroke-linejoin="round"/>
<path d="M41.5252 26.8941V26.3603C41.5252 25.9154 41.3354 25.7374 40.8638 25.7374H39.6656C39.194 25.7374 39.0042 25.9154 39.0042 26.3603V26.8941C39.0042 27.339 39.194 27.517 39.6656 27.517H40.8638C41.3354 27.517 41.5252 27.339 41.5252 26.8941Z" stroke="#12121D" stroke-width="0.4449" stroke-linecap="round" stroke-linejoin="round"/>
<path d="M38.1144 24.8773V26.8941C38.1144 27.339 37.9245 27.517 37.4529 27.517H36.2547C35.7831 27.517 35.5933 27.339 35.5933 26.8941V24.8773C35.5933 24.4324 35.7831 24.2544 36.2547 24.2544H37.4529C37.9245 24.2544 38.1144 24.4324 38.1144 24.8773Z" stroke="#12121D" stroke-width="0.4449" stroke-linecap="round" stroke-linejoin="round"/>
<path d="M38.1144 22.2079V22.7417C38.1144 23.1866 37.9245 23.3646 37.4529 23.3646H36.2547C35.7831 23.3646 35.5933 23.1866 35.5933 22.7417V22.2079C35.5933 21.763 35.7831 21.585 36.2547 21.585H37.4529C37.9245 21.585 38.1144 21.763 38.1144 22.2079Z" stroke="#12121D" stroke-width="0.4449" stroke-linecap="round" stroke-linejoin="round"/>
<rect x="2.375" y="8.375" width="43.25" height="31.25" rx="5.625" stroke="#12121D" stroke-width="0.75"/>
</svg>
