<svg width="100" height="100" viewBox="0 0 100 100" fill="none" xmlns="http://www.w3.org/2000/svg">
<path d="M91.0001 49.5C91.2064 51.9754 88.1614 57 84.5807 62C81.0001 67 85.5001 72 78.5001 80.5C59 89 24.0239 66.9033 35 41.5C41.25 27.0349 62.4455 17.3621 74.5193 17.3621C84.9587 18.3384 81.5001 27.5 82.0193 36.3621C82.1422 38.4599 90.5001 43.5 91.0001 49.5Z" fill="#FF6C37"/>
<path d="M44.7918 10.2084C47.7084 7.75003 52.4168 7.75003 55.2501 10.2084L61.8334 15.8334C63.0834 16.875 65.4584 17.75 67.1251 17.75H74.2084C78.6251 17.75 82.2501 21.375 82.2501 25.7917V32.875C82.2501 34.5417 83.1251 36.875 84.1668 38.125L89.7918 44.7084C92.2501 47.625 92.2501 52.3334 89.7918 55.1667L84.1668 61.75C83.1251 63 82.2501 65.3334 82.2501 67V74.0834C82.2501 78.5 78.6251 82.125 74.2084 82.125H67.1251C65.4584 82.125 63.1251 83 61.8751 84.0417L55.2918 89.6667C52.3751 92.125 47.6668 92.125 44.8334 89.6667L38.2501 84.0417C37.0001 83 34.6251 82.125 33.0001 82.125H25.7084C21.2917 82.125 17.6667 78.5 17.6667 74.0834V66.9584C17.6667 65.3334 16.8334 62.9584 15.7917 61.75L10.1667 55.125C7.75008 52.25 7.75008 47.5834 10.1667 44.7084L15.7917 38.0834C16.8334 36.8334 17.6667 34.5 17.6667 32.875V25.8334C17.6667 21.4167 21.2917 17.7917 25.7084 17.7917H32.9167C34.5834 17.7917 36.9167 16.9167 38.1667 15.875L44.7918 10.2084Z" stroke="#292D32" stroke-width="2" stroke-linecap="round" stroke-linejoin="round"/>
<path d="M50 33.875V54" stroke="#292D32" stroke-width="4" stroke-linecap="round" stroke-linejoin="round"/>
<circle cx="50" cy="66" r="3" fill="#292D32"/>
</svg>
