<svg width="48" height="48" viewBox="0 0 48 48" fill="none" xmlns="http://www.w3.org/2000/svg">
<rect x="2.375" y="8.375" width="43.25" height="31.25" rx="5.625" fill="white"/>
<g clip-path="url(#clip0)">
<rect x="34" y="19.0135" width="8.29272" height="10.3659" rx="1.38212" fill="#FF6C37"/>
<path d="M38.1464 24.5419C39.1005 24.5419 39.874 23.7684 39.874 22.8143C39.874 21.8601 39.1005 21.0866 38.1464 21.0866C37.1922 21.0866 36.4187 21.8601 36.4187 22.8143C36.4187 23.7684 37.1922 24.5419 38.1464 24.5419Z" stroke="#12121D" stroke-width="0.4" stroke-linecap="round" stroke-linejoin="round"/>
<path d="M41.1144 27.9972C41.1144 26.66 39.7841 25.5785 38.1463 25.5785C36.5085 25.5785 35.1782 26.66 35.1782 27.9972" stroke="#12121D" stroke-width="0.4" stroke-linecap="round" stroke-linejoin="round"/>
</g>
<rect x="7.12793" y="18.2352" width="5.72464" height="1.55658" rx="0.77829" fill="#FF6C37"/>
<rect x="7.12793" y="21.0866" width="5.72464" height="1.55658" rx="0.77829" fill="#FF6C37"/>
<rect x="15.4353" y="18.2352" width="16.0461" height="1.55658" rx="0.77829" fill="#FF6C37"/>
<rect x="7.12793" y="30.8858" width="16.0461" height="1.55658" rx="0.77829" fill="#FF6C37"/>
<rect x="15.4353" y="21.0866" width="16.0461" height="1.55658" rx="0.77829" fill="#FF6C37"/>
<rect x="7.12793" y="33.7373" width="16.0461" height="1.55658" rx="0.77829" fill="#FF6C37"/>
<path fill-rule="evenodd" clip-rule="evenodd" d="M9.09366 11.2951C9.30987 11.2951 9.48515 11.1059 9.48515 10.8725C9.48515 10.639 9.30987 10.4498 9.09366 10.4498C8.87744 10.4498 8.70216 10.639 8.70216 10.8725C8.70216 11.1059 8.87744 11.2951 9.09366 11.2951ZM8.28471 11.2951C8.45935 11.2951 8.60092 11.1624 8.60092 10.9986C8.60092 10.8349 8.45935 10.7022 8.28471 10.7022C8.11008 10.7022 7.96851 10.8349 7.96851 10.9986C7.96851 11.1624 8.11008 11.2951 8.28471 11.2951ZM8.66317 11.3518C8.27952 11.3518 7.96851 11.6628 7.96851 12.0465C7.96851 12.2835 8.08714 12.4927 8.26826 12.6181C8.1747 12.7675 8.12062 12.9443 8.12062 13.1336V13.4986C8.12062 14.036 8.55626 14.4717 9.09366 14.4717C9.63106 14.4717 10.0667 14.036 10.0667 13.4986V13.1336C10.0667 12.9443 10.0126 12.7675 9.91907 12.6181C10.1002 12.4927 10.2188 12.2835 10.2188 12.0465C10.2188 11.6628 9.90781 11.3518 9.52415 11.3518H8.66317ZM8.0309 14.9759C8.0309 14.7287 8.23135 14.5282 8.47861 14.5282H9.83351C10.0808 14.5282 10.2812 14.7287 10.2812 14.9759C10.2812 15.2232 10.0808 15.4237 9.83351 15.4237H8.47861C8.23135 15.4237 8.0309 15.2232 8.0309 14.9759ZM10.2189 10.9986C10.2189 11.1624 10.0773 11.2951 9.90267 11.2951C9.72803 11.2951 9.58646 11.1624 9.58646 10.9986C9.58646 10.8349 9.72803 10.7022 9.90267 10.7022C10.0773 10.7022 10.2189 10.8349 10.2189 10.9986Z" fill="#FF6C37"/>
<rect x="11.3379" y="10.7183" width="28.2533" height="4.70532" rx="1" fill="#FF6C37"/>
<rect x="7.12793" y="24.4646" width="6.36419" height="3.8766" rx="1" fill="#FF6C37"/>
<path fill-rule="evenodd" clip-rule="evenodd" d="M36.1921 32.4123C36.1921 32.1218 36.4275 31.8864 36.718 31.8864H39.5114C39.8019 31.8864 40.0373 32.1218 40.0373 32.4123C40.0373 32.7027 40.2727 32.9381 40.5632 32.9381H40.6842C41.0415 32.9381 41.3312 33.2278 41.3312 33.5851V34.3453C41.3312 34.7026 41.0415 34.9923 40.6842 34.9923H40.6317C40.6455 34.9353 40.6528 34.8757 40.6528 34.8145C40.6528 34.3992 40.3161 34.0626 39.9009 34.0626C39.4856 34.0626 39.1489 34.3992 39.1489 34.8145C39.1489 34.8757 39.1562 34.9353 39.1701 34.9923L37.1964 34.9923C37.2102 34.9353 37.2175 34.8757 37.2175 34.8145C37.2175 34.3992 36.8808 34.0626 36.4656 34.0626C36.0503 34.0626 35.7136 34.3992 35.7136 34.8145C35.7136 34.8757 35.7209 34.9353 35.7348 34.9923L35.5768 34.9923C35.2369 34.9923 34.9614 34.7168 34.9614 34.3769V33.5535C34.9614 33.2136 35.2369 32.9381 35.5768 32.9381H35.6662C35.9567 32.9381 36.1921 32.7027 36.1921 32.4123Z" fill="#FF6C37"/>
<circle cx="36.4657" cy="34.8699" r="0.664934" fill="#FF6C37"/>
<circle cx="39.9088" cy="34.8699" r="0.664934" fill="#FF6C37"/>
<rect x="2.375" y="8.375" width="43.25" height="31.25" rx="5.625" stroke="#12121D" stroke-width="0.75"/>
<defs>
<clipPath id="clip0">
<rect x="34" y="19.0135" width="8.29272" height="10.3659" rx="1.38212" fill="white"/>
</clipPath>
</defs>
</svg>
