<svg width="74" height="97" viewBox="0 0 74 97" fill="none" xmlns="http://www.w3.org/2000/svg">
<path fill-rule="evenodd" clip-rule="evenodd" d="M44.6939 69.1375L43.427 76.0347L58.466 76.0347L59.7293 69.1375L50.4739 69.1375L44.6939 69.1375Z" fill="#F96D38"/>
<path fill-rule="evenodd" clip-rule="evenodd" d="M68.1941 28.6957L58.7592 28.6957L57.5349 35.5928L66.8327 35.5928L68.1941 28.6957Z" fill="#F96D38"/>
<path fill-rule="evenodd" clip-rule="evenodd" d="M37.9826 42.0111L39.0265 35.7432L51.2893 35.7432L52.544 28.6496L43.4506 28.6496L48.4985 0.793348L0.476682 48.009L31.6583 96.0991L36.3276 69.0254L26.8214 69.0254L26.3562 69.0434L26.3598 69.0254L26.3274 69.0254L27.5803 61.9299L37.568 61.9299L37.5662 61.948L37.568 61.948L37.5716 61.9246L55.434 61.9246L56.5463 55.5344L38.6839 55.5344L40.0397 48.5434L72.4112 48.5434L73.5235 42.0111L37.9826 42.0111ZM32.3596 55.4894L23.2481 55.4894L24.5011 48.394L33.6144 48.394L32.3596 55.4894Z" fill="#F96D38"/>
</svg>
