<svg width="24" height="24" viewBox="0 0 24 24" fill="none" xmlns="http://www.w3.org/2000/svg">
<path d="M17.1723 17.092L16.9623 18.2061L13.8494 18.2061L14.06 17.092L15.2448 17.092L17.1723 17.092Z" stroke="#FF6C37" stroke-width="0.5"/>
<path d="M17.2451 8.74219L17.4486 7.62818L19.2065 7.62818L18.9802 8.74219L17.2451 8.74219Z" stroke="#FF6C37" stroke-width="0.5"/>
<path d="M11.9902 10.4519L11.9401 10.7441L12.2366 10.7441L20.4983 10.7441L20.318 11.7727L12.732 11.7727L12.527 11.7727L12.4868 11.9738L12.1603 13.6098L12.1007 13.9087L12.4055 13.9087L16.4085 13.9087L16.2302 14.9041L12.1376 14.9041L11.9239 14.9041L11.9237 14.9054L9.73144 14.9054L9.52278 14.9054L9.48547 15.1107L9.18372 16.7711L9.13016 17.0658L9.1303 17.0658L9.12697 17.0818L9.44603 17.0698L9.55336 17.0658L11.5398 17.0658L10.5761 22.495L3.52854 11.9335L14.3812 1.56498L13.3077 7.32152L13.2525 7.61735L13.5535 7.61735L15.4438 7.61735L15.2326 8.77734L12.488 8.77734L12.2772 8.77734L12.2416 8.98511L11.9902 10.4519ZM10.8824 13.8982L11.091 13.8982L11.1284 13.6929L11.4306 12.0325L11.4842 11.7378L11.1846 11.7378L8.98987 11.7378L8.78121 11.7378L8.7439 11.9431L8.44215 13.6035L8.38859 13.8982L8.68812 13.8982L10.8824 13.8982Z" stroke="#FF6C37" stroke-width="0.5"/>
</svg>
