<svg width="48" height="48" viewBox="0 0 48 48" fill="none" xmlns="http://www.w3.org/2000/svg">
<rect x="2.375" y="8.375" width="43.25" height="31.25" rx="5.625" fill="white"/>
<rect x="33" y="19" width="8" height="8" rx="1.22855" fill="#FF6C37"/>
<rect x="5.97705" y="20.2217" width="16.0594" height="1.55658" rx="0.77829" fill="#FF6C37"/>
<rect x="27.9766" y="11.6674" width="14.0467" height="2.53859" rx="1.2693" fill="#FF6C37"/>
<rect x="5.97705" y="11.6674" width="14.0467" height="2.53859" rx="1.2693" fill="#FF6C37"/>
<rect x="27.9766" y="15.4237" width="14.0467" height="1.13415" rx="0.567075" fill="#FF6C37"/>
<rect x="5.97705" y="15.4237" width="14.0467" height="1.13415" rx="0.567075" fill="#FF6C37"/>
<rect x="5.97705" y="23.2217" width="11.5675" height="1.55658" rx="0.77829" fill="#FF6C37"/>
<rect x="5.97705" y="26.1894" width="9.69645" height="1.55658" rx="0.77829" fill="#FF6C37"/>
<rect x="5.97705" y="34.6439" width="9.69645" height="1.55658" rx="0.77829" fill="#FF6C37"/>
<path fill-rule="evenodd" clip-rule="evenodd" d="M23.9689 11.8622C24.1851 11.8622 24.3604 11.673 24.3604 11.4395C24.3604 11.2061 24.1851 11.0169 23.9689 11.0169C23.7527 11.0169 23.5774 11.2061 23.5774 11.4395C23.5774 11.673 23.7527 11.8622 23.9689 11.8622ZM23.16 11.8622C23.3346 11.8622 23.4762 11.7295 23.4762 11.5657C23.4762 11.402 23.3346 11.2692 23.16 11.2692C22.9853 11.2692 22.8438 11.402 22.8438 11.5657C22.8438 11.7295 22.9853 11.8622 23.16 11.8622ZM23.5384 11.9189C23.1548 11.9189 22.8438 12.2299 22.8438 12.6136C22.8438 12.8505 22.9624 13.0598 23.1435 13.1851C23.0499 13.3346 22.9959 13.5113 22.9959 13.7007V14.0657C22.9959 14.6031 23.4315 15.0388 23.9689 15.0388C24.5063 15.0388 24.942 14.6031 24.942 14.0657V13.7007C24.942 13.5113 24.8879 13.3346 24.7943 13.1851C24.9754 13.0598 25.0941 12.8505 25.0941 12.6136C25.0941 12.2299 24.783 11.9189 24.3994 11.9189H23.5384ZM22.9061 15.543C22.9061 15.2958 23.1066 15.0953 23.3539 15.0953H24.7088C24.956 15.0953 25.1565 15.2958 25.1565 15.543C25.1565 15.7903 24.956 15.9907 24.7088 15.9907H23.3539C23.1066 15.9907 22.9061 15.7903 22.9061 15.543ZM25.0941 11.5657C25.0941 11.7295 24.9525 11.8622 24.7779 11.8622C24.6033 11.8622 24.4617 11.7295 24.4617 11.5657C24.4617 11.402 24.6033 11.2692 24.7779 11.2692C24.9525 11.2692 25.0941 11.402 25.0941 11.5657Z" fill="#FF6C37"/>
<rect x="33" y="29" width="8" height="8" rx="1.22855" fill="#FF6C37"/>
<path d="M36.9999 33C37.8008 33 38.45 32.3508 38.45 31.5499C38.45 30.749 37.8008 30.0998 36.9999 30.0998C36.199 30.0998 35.5498 30.749 35.5498 31.5499C35.5498 32.3508 36.199 33 36.9999 33Z" stroke="#12121D" stroke-width="0.419673" stroke-linecap="round" stroke-linejoin="round"/>
<path d="M39.4913 35.9002C39.4913 34.7778 38.3747 33.8701 37.0001 33.8701C35.6254 33.8701 34.5088 34.7778 34.5088 35.9002" stroke="#12121D" stroke-width="0.419673" stroke-linecap="round" stroke-linejoin="round"/>
<rect x="2.375" y="8.375" width="43.25" height="31.25" rx="5.625" stroke="#12121D" stroke-width="0.75"/>
</svg>
