<svg width="48" height="48" viewBox="0 0 48 48" fill="none" xmlns="http://www.w3.org/2000/svg">
<g clip-path="url(#clip0)">
<rect x="8.375" y="45.625" width="43.25" height="31.25" rx="5.625" transform="rotate(-90 8.375 45.625)" fill="white"/>
<path fill-rule="evenodd" clip-rule="evenodd" d="M23.9254 18.3292C24.4408 18.3292 24.8586 17.8782 24.8586 17.3218C24.8586 16.7654 24.4408 16.3144 23.9254 16.3144C23.4101 16.3144 22.9923 16.7654 22.9923 17.3218C22.9923 17.8782 23.4101 18.3292 23.9254 18.3292ZM21.9971 18.3292C22.4134 18.3292 22.7508 18.0128 22.7508 17.6225C22.7508 17.2323 22.4134 16.9159 21.9971 16.9159C21.5809 16.9159 21.2434 17.2323 21.2434 17.6225C21.2434 18.0128 21.5809 18.3292 21.9971 18.3292ZM22.3044 18.4645C21.7184 18.4645 21.2434 18.9395 21.2434 19.5255V20.7151C21.2434 21.0337 21.3838 21.3194 21.6061 21.5139V24.8401C21.6061 25.4261 22.0812 25.9011 22.6672 25.9011H25.1839C25.7699 25.9011 26.2449 25.4261 26.2449 24.8401V21.5137C26.4671 21.3192 26.6074 21.0335 26.6074 20.7151V19.5255C26.6074 18.9395 26.1323 18.4645 25.5463 18.4645H22.3044ZM21.3924 27.1031C21.3924 26.5171 21.8674 26.0359 22.4534 26.0359H25.6953C26.2813 26.0359 26.7564 26.5171 26.7564 27.1031C26.7564 27.6891 26.2813 28.1703 25.6953 28.1703H22.4534C21.8674 28.1703 21.3924 27.6891 21.3924 27.1031ZM26.6074 17.6225C26.6074 18.0128 26.2699 18.3292 25.8536 18.3292C25.4374 18.3292 25.0999 18.0128 25.0999 17.6225C25.0999 17.2323 25.4374 16.9159 25.8536 16.9159C26.2699 16.9159 26.6074 17.2323 26.6074 17.6225Z" fill="#FF6C37"/>
<rect x="19.5869" y="7.26172" width="8.82606" height="1.63222" rx="0.816109" fill="#FF6C37"/>
<rect x="16.1306" y="34.7184" width="15.7387" height="1.63222" rx="0.816109" fill="#FF6C37"/>
<rect x="18.8809" y="9.80074" width="10.2381" height="1.63222" rx="0.816109" fill="#FF6C37"/>
<rect x="14.8716" y="37.2574" width="18.2566" height="1.63222" rx="0.816109" fill="#FF6C37"/>
</g>
<rect x="8.375" y="45.625" width="43.25" height="31.25" rx="5.625" transform="rotate(-90 8.375 45.625)" stroke="#12121D" stroke-width="0.75"/>
<defs>
<clipPath id="clip0">
</clipPath>
</defs>
</svg>
