<svg width="39" height="38" viewBox="0 0 39 38" fill="none" xmlns="http://www.w3.org/2000/svg">
<path d="M9.20831 4.75H29.7916C31.0514 4.75 32.2596 5.25045 33.1504 6.14124C34.0412 7.03204 34.5416 8.24022 34.5416 9.5V30.0833C34.5416 31.3431 34.0412 32.5513 33.1504 33.4421C32.2596 34.3329 31.0514 34.8333 29.7916 34.8333H9.20831C7.94853 34.8333 6.74035 34.3329 5.84956 33.4421C4.95876 32.5513 4.45831 31.3431 4.45831 30.0833V9.5C4.45831 8.24022 4.95876 7.03204 5.84956 6.14124C6.74035 5.25045 7.94853 4.75 9.20831 4.75ZM9.20831 6.33333C8.36846 6.33333 7.56301 6.66696 6.96914 7.26083C6.37528 7.85469 6.04165 8.66015 6.04165 9.5V27.8445L12.8389 21.0473L16.7972 25.0056L24.7139 17.0889L32.9583 25.3333V9.5C32.9583 8.66015 32.6247 7.85469 32.0308 7.26083C31.4369 6.66696 30.6315 6.33333 29.7916 6.33333H9.20831ZM16.7972 27.2444L12.8389 23.2861L6.04165 30.0833C6.04165 30.9232 6.37528 31.7286 6.96914 32.3225C7.56301 32.9164 8.36846 33.25 9.20831 33.25H29.7916C30.6315 33.25 31.4369 32.9164 32.0308 32.3225C32.6247 31.7286 32.9583 30.9232 32.9583 30.0833V27.5722L24.7139 19.3278L16.7972 27.2444ZM13.1666 9.5C14.2165 9.5 15.2233 9.91704 15.9656 10.6594C16.7079 11.4017 17.125 12.4085 17.125 13.4583C17.125 14.5081 16.7079 15.515 15.9656 16.2573C15.2233 16.9996 14.2165 17.4167 13.1666 17.4167C12.1168 17.4167 11.11 16.9996 10.3677 16.2573C9.62535 15.515 9.20831 14.5081 9.20831 13.4583C9.20831 12.4085 9.62535 11.4017 10.3677 10.6594C11.11 9.91704 12.1168 9.5 13.1666 9.5ZM13.1666 11.0833C12.5368 11.0833 11.9327 11.3336 11.4873 11.779C11.0419 12.2244 10.7916 12.8284 10.7916 13.4583C10.7916 14.0882 11.0419 14.6923 11.4873 15.1377C11.9327 15.5831 12.5368 15.8333 13.1666 15.8333C13.7965 15.8333 14.4006 15.5831 14.846 15.1377C15.2914 14.6923 15.5416 14.0882 15.5416 13.4583C15.5416 12.8284 15.2914 12.2244 14.846 11.779C14.4006 11.3336 13.7965 11.0833 13.1666 11.0833Z" fill="#FF6C37"/>
</svg>
