<svg width="16" height="12" viewBox="0 0 16 12" fill="none" xmlns="http://www.w3.org/2000/svg">
<path d="M0 4H16V7.5H0V4Z" fill="#E6E7E8"/>
<path d="M13.5 0.25H2.5C0.84325 0.25 0 1.48125 0 3V4H16V3C16 1.48125 15.1567 0.25 13.5 0.25Z" fill="#FF9933"/>
<path d="M0 8.5C0 10.0187 0.84325 11.25 2.5 11.25H13.5C15.1567 11.25 16 10.0187 16 8.5V7.5H0V8.5Z" fill="#128807"/>
<path fill-rule="evenodd" clip-rule="evenodd" d="M8.07739 4.14575C8.39682 4.14575 8.70906 4.2405 8.97462 4.41802C9.24018 4.59553 9.44711 4.84783 9.56923 5.14299C9.69136 5.43815 9.72318 5.7629 9.66069 6.07615C9.59819 6.3894 9.44417 6.67707 9.21813 6.90276C8.99209 7.12845 8.70418 7.28202 8.39083 7.34403C8.07748 7.40605 7.75278 7.37372 7.45782 7.25114C7.16285 7.12856 6.91087 6.92123 6.73377 6.6554C6.55667 6.38957 6.4624 6.07718 6.46289 5.75775C6.46362 5.33001 6.63403 4.92004 6.93672 4.61782C7.23942 4.31559 7.64965 4.14582 8.07739 4.14575ZM7.00114 4.8445C7.02889 4.876 7.03389 4.90975 7.01539 4.938C7.00755 4.95101 6.99545 4.9609 6.98114 4.966C6.97016 4.97009 6.95835 4.97145 6.94672 4.96996C6.9351 4.96848 6.924 4.96421 6.91439 4.9575C6.87094 5.01973 6.83272 5.08545 6.80014 5.154C6.83789 5.17875 6.85039 5.20975 6.83789 5.244C6.8312 5.26143 6.81798 5.27557 6.80104 5.28342C6.7841 5.29126 6.76476 5.29219 6.74714 5.286C6.72914 5.322 6.68939 5.474 6.68889 5.506C6.70545 5.50917 6.72033 5.51812 6.73089 5.53125C6.74205 5.54429 6.74778 5.56111 6.74689 5.57825C6.74214 5.62525 6.71314 5.64525 6.66889 5.647C6.66189 5.69225 6.66264 5.84375 6.66964 5.8735C6.71664 5.8785 6.74139 5.899 6.74539 5.93475C6.75089 5.97325 6.73239 5.99825 6.68739 6.01575C6.70089 6.09 6.72014 6.163 6.74539 6.2345C6.76302 6.22918 6.7819 6.22979 6.79914 6.23625C6.81589 6.2435 6.82914 6.256 6.83614 6.27325C6.84239 6.28675 6.84364 6.30075 6.84039 6.3155C6.83806 6.32646 6.83321 6.33673 6.82622 6.3455C6.81924 6.35426 6.81031 6.36128 6.80014 6.366C6.83364 6.4355 6.87064 6.501 6.91439 6.5625C6.95339 6.54325 6.98739 6.54775 7.01039 6.57525C7.02051 6.58655 7.02628 6.60109 7.02664 6.61625C7.02742 6.62746 7.02546 6.63868 7.02093 6.64896C7.0164 6.65924 7.00944 6.66826 7.00064 6.67525C7.05064 6.73375 7.10389 6.78725 7.16189 6.8365C7.19464 6.80775 7.22864 6.80325 7.25789 6.82375C7.27114 6.833 7.28039 6.84525 7.28464 6.86025C7.28769 6.87087 7.28833 6.88204 7.28651 6.89294C7.2847 6.90384 7.28047 6.91419 7.27414 6.92325C7.33739 6.96675 7.40264 7.00425 7.47089 7.03675C7.49739 6.9995 7.52764 6.987 7.56039 6.9995C7.57466 7.00463 7.58703 7.01395 7.59589 7.02625C7.60839 7.04625 7.61014 7.06825 7.60289 7.09175C7.67489 7.11725 7.74739 7.13675 7.82239 7.15C7.83714 7.10775 7.86264 7.088 7.89664 7.0905C7.91239 7.09175 7.92664 7.0965 7.93914 7.10725C7.95664 7.12325 7.96489 7.1435 7.96339 7.1685C8.04039 7.174 8.11564 7.1745 8.19039 7.1685C8.19589 7.12025 8.21514 7.096 8.25389 7.0905C8.26861 7.08847 8.28359 7.09147 8.29639 7.099C8.30575 7.1043 8.31381 7.11163 8.31995 7.12046C8.3261 7.12929 8.33018 7.13938 8.33189 7.15C8.40739 7.136 8.48064 7.11675 8.55139 7.0915C8.54514 7.04425 8.55664 7.016 8.58839 7.00125C8.59997 6.99628 8.6126 6.9943 8.62514 6.9955C8.63814 6.9965 8.64989 7.0005 8.65939 7.009C8.66864 7.01675 8.67639 7.02625 8.68539 7.036C8.75354 7.00384 8.81893 6.96613 8.88089 6.92325C8.85539 6.88325 8.87039 6.845 8.89114 6.828C8.89838 6.8218 8.90678 6.8171 8.91585 6.81418C8.92492 6.81125 8.93448 6.81017 8.94398 6.81098C8.95347 6.8118 8.96271 6.8145 8.97115 6.81892C8.97959 6.82335 8.98707 6.82941 8.99314 6.83675C9.05089 6.78725 9.10514 6.7335 9.15364 6.67575C9.12539 6.6435 9.11989 6.6095 9.14064 6.58025C9.14904 6.56714 9.16193 6.55754 9.17689 6.55325C9.18755 6.54987 9.19885 6.54899 9.20991 6.55068C9.22096 6.55237 9.23148 6.55659 9.24064 6.563C9.28439 6.5 9.32239 6.43475 9.35489 6.36625C9.31839 6.34175 9.30514 6.313 9.31614 6.28025C9.32014 6.26569 9.32895 6.25291 9.34114 6.244C9.35085 6.23723 9.362 6.23279 9.37372 6.23106C9.38543 6.22932 9.39738 6.23033 9.40864 6.234C9.42489 6.19875 9.46539 6.05025 9.46764 6.01425C9.45035 6.01111 9.43474 6.00189 9.42364 5.98825C9.41782 5.9815 9.41346 5.97362 9.41083 5.9651C9.40821 5.95658 9.40738 5.94761 9.40839 5.93875C9.40934 5.92292 9.4159 5.90794 9.42689 5.8965C9.43442 5.88857 9.44362 5.88244 9.45383 5.87854C9.46405 5.87465 9.475 5.8731 9.48589 5.874C9.49214 5.79838 9.49214 5.72237 9.48589 5.64675C9.43814 5.642 9.41539 5.6235 9.40914 5.58575C9.40633 5.57148 9.40844 5.55667 9.41514 5.54375C9.42029 5.53376 9.42769 5.52511 9.43676 5.51847C9.44583 5.51183 9.45631 5.50739 9.46739 5.5055C9.45426 5.43081 9.43477 5.35738 9.40914 5.286C9.36289 5.29375 9.33439 5.28125 9.31914 5.24925C9.31519 5.2407 9.31297 5.23144 9.31263 5.22202C9.31229 5.2126 9.31383 5.2032 9.31716 5.19438C9.32048 5.18556 9.32553 5.17749 9.33201 5.17065C9.33849 5.1638 9.34627 5.15831 9.35489 5.1545C9.3225 5.08577 9.28428 5.01995 9.24064 4.95775C9.20039 4.977 9.16764 4.9725 9.14464 4.945C9.13443 4.93338 9.12875 4.91847 9.12864 4.903C9.12817 4.89201 9.13028 4.88107 9.13479 4.87104C9.13931 4.86102 9.14611 4.85218 9.15464 4.84525C9.10527 4.78746 9.05153 4.73355 8.99389 4.684C8.95939 4.7135 8.92589 4.71725 8.89739 4.69675C8.88445 4.68812 8.87498 4.67519 8.87064 4.66025C8.86753 4.64976 8.86686 4.6387 8.86868 4.62791C8.8705 4.61712 8.87476 4.60689 8.88114 4.598C8.81882 4.55456 8.75301 4.51634 8.68439 4.48375C8.65864 4.52075 8.62964 4.533 8.59689 4.522C8.58238 4.51736 8.56969 4.50826 8.56064 4.496C8.55405 4.48625 8.54984 4.47508 8.54836 4.46339C8.54688 4.45171 8.54818 4.43984 8.55214 4.42875C8.48082 4.40296 8.40737 4.38347 8.33264 4.3705C8.31839 4.411 8.29264 4.432 8.25939 4.43C8.24385 4.4295 8.22891 4.42388 8.21689 4.414C8.20798 4.40648 8.20102 4.39691 8.19662 4.38612C8.19222 4.37532 8.19052 4.36361 8.19164 4.352C8.11611 4.34558 8.04016 4.34567 7.96464 4.35225C7.95939 4.39725 7.93989 4.423 7.90664 4.4285C7.89169 4.43169 7.87611 4.42976 7.86239 4.423C7.85217 4.41794 7.84329 4.41052 7.83651 4.40135C7.82973 4.39217 7.82523 4.38151 7.82339 4.37025C7.74867 4.38384 7.67518 4.40349 7.60364 4.429C7.61164 4.47325 7.59914 4.50225 7.56864 4.518C7.55539 4.52475 7.54139 4.5275 7.52589 4.52475C7.51424 4.52316 7.50321 4.51857 7.49387 4.51143C7.48454 4.50428 7.47722 4.49483 7.47264 4.484C7.42989 4.5 7.29389 4.57875 7.27589 4.5985C7.29439 4.6355 7.29014 4.66825 7.26464 4.69175C7.25744 4.69812 7.24903 4.70297 7.23991 4.70602C7.23079 4.70907 7.22116 4.71026 7.21157 4.70951C7.20199 4.70876 7.19265 4.7061 7.18412 4.70167C7.17558 4.69725 7.16803 4.69115 7.16189 4.68375C7.1042 4.73307 7.05046 4.78681 7.00114 4.8445Z" fill="#010088"/>
<path fill-rule="evenodd" clip-rule="evenodd" d="M8.76981 6.95678C8.76681 6.95353 8.76381 6.95128 8.76156 6.94778C8.61622 6.7256 8.47047 6.50368 8.32431 6.28203C8.32106 6.27578 8.31731 6.26953 8.31431 6.26253C8.28031 6.18328 8.24706 6.10403 8.21231 6.02503C8.21114 6.02096 8.20955 6.01702 8.20756 6.01328C8.19356 6.01853 8.18081 6.02453 8.16581 6.03028L8.17081 6.04303C8.20206 6.11978 8.23206 6.19678 8.26381 6.27353C8.27231 6.29403 8.27581 6.31553 8.28031 6.33703C8.30481 6.45178 8.32781 6.56703 8.35256 6.68203L8.43706 7.09278C8.43748 7.09376 8.43763 7.09483 8.43749 7.09588C8.43736 7.09694 8.43695 7.09794 8.43631 7.09878L8.43281 7.09003C8.36431 6.88028 8.29406 6.67078 8.22531 6.46103C8.21156 6.42003 8.19931 6.37953 8.18431 6.33853C8.17731 6.31803 8.17506 6.29703 8.17181 6.27578C8.16306 6.21628 8.15556 6.15628 8.14581 6.09678C8.14456 6.08253 8.14231 6.06853 8.14031 6.05478C8.1397 6.04907 8.13878 6.04339 8.13756 6.03778C8.12256 6.03928 8.10881 6.04128 8.09381 6.04303C8.09381 6.04903 8.09431 6.05528 8.09481 6.06153C8.10356 6.13478 8.11106 6.20828 8.12156 6.28128C8.12706 6.32128 8.12431 6.36053 8.12206 6.40053C8.12056 6.43428 8.11831 6.46803 8.11681 6.50203C8.11231 6.57053 8.10881 6.63878 8.10406 6.70703L8.09656 6.84803C8.09231 6.92803 8.08731 7.00778 8.08306 7.08728C8.08106 7.10978 8.08056 7.13278 8.07831 7.15478L8.07231 7.07903L8.06456 6.91503L8.05556 6.76878C8.05306 6.71878 8.04981 6.66903 8.04706 6.61903C8.04481 6.58628 8.04356 6.55353 8.04156 6.52128C8.03881 6.46953 8.03556 6.41778 8.03306 6.36653C8.0306 6.33921 8.03127 6.3117 8.03506 6.28453C8.04031 6.24753 8.04431 6.20978 8.04881 6.17228C8.05381 6.13528 8.05806 6.09803 8.06256 6.06153C8.06306 6.05578 8.06306 6.04978 8.06381 6.04303L8.02006 6.03728C8.01881 6.04728 8.01656 6.05703 8.01481 6.06703C8.00442 6.1434 7.99376 6.21974 7.98281 6.29603C7.97981 6.32578 7.96806 6.35328 7.95806 6.38103C7.88106 6.61553 7.80381 6.85028 7.72581 7.08453C7.72406 7.08878 7.72331 7.09278 7.72006 7.09678C7.72006 7.09378 7.72006 7.09153 7.72131 7.08878C7.75356 6.93078 7.78606 6.77253 7.81956 6.61453C7.84106 6.50953 7.86331 6.40478 7.88456 6.30003L7.89056 6.28278C7.92281 6.20353 7.95381 6.12353 7.98681 6.04428C7.98796 6.03961 7.98964 6.03508 7.99181 6.03078C7.97804 6.02488 7.9642 6.01913 7.95031 6.01353C7.94856 6.01803 7.94581 6.02178 7.94431 6.02628C7.90981 6.10578 7.87606 6.18553 7.84156 6.26503C7.8394 6.271 7.83673 6.27678 7.83356 6.28228C7.68604 6.50574 7.53896 6.72949 7.39231 6.95353C7.39029 6.9569 7.38767 6.95987 7.38456 6.96228C7.38581 6.95828 7.38806 6.95503 7.38956 6.95153L7.75106 6.23478C7.75417 6.22827 7.75803 6.22215 7.76256 6.21653L7.91706 6.00928C7.92031 6.00578 7.92231 6.00253 7.92531 5.99878C7.91256 5.98953 7.90231 5.98103 7.88956 5.97128C7.88681 5.97453 7.88431 5.97728 7.88206 5.98053C7.82806 6.04828 7.77481 6.11653 7.72206 6.18403C7.71606 6.19028 7.71056 6.19678 7.70381 6.20253C7.50681 6.37878 7.30981 6.55403 7.11206 6.73053C7.10806 6.73378 7.10406 6.73728 7.09906 6.73953C7.10131 6.73728 7.10256 6.73453 7.10406 6.73278C7.26631 6.55153 7.42731 6.37053 7.58881 6.18928C7.59806 6.17928 7.60731 6.16928 7.61606 6.15853C7.63456 6.13703 7.65531 6.11803 7.67781 6.10103L7.85731 5.95978C7.86131 5.95678 7.86431 5.95353 7.86881 5.95053C7.85994 5.93855 7.85077 5.9268 7.84131 5.91528C7.83731 5.91778 7.83406 5.92028 7.83031 5.92303C7.76156 5.97453 7.69256 6.02553 7.62381 6.07728C7.61611 6.08308 7.60791 6.08819 7.59931 6.09253C7.36456 6.21103 7.12856 6.32953 6.89331 6.44803C6.88881 6.45003 6.88456 6.45253 6.87931 6.45253L6.88881 6.44578L7.32781 6.15828C7.40431 6.10803 7.48106 6.05778 7.55706 6.00728C7.56356 6.00353 7.57031 6.00028 7.57606 5.99728C7.65581 5.96353 7.73531 5.92953 7.81431 5.89553C7.81806 5.89403 7.82181 5.89253 7.82631 5.89028L7.80956 5.84903C7.80481 5.85028 7.80181 5.85153 7.79806 5.85278C7.71706 5.88503 7.63681 5.91778 7.55531 5.94978C7.53856 5.95603 7.52031 5.95903 7.50256 5.96278L6.95631 6.07628C6.88756 6.09103 6.81756 6.10553 6.74856 6.11978C6.74578 6.12044 6.74285 6.12009 6.74031 6.11878C6.75931 6.11278 6.77831 6.10603 6.79706 6.09978C7.03306 6.02203 7.26881 5.94453 7.50406 5.86628C7.52256 5.86003 7.54231 5.85828 7.56106 5.85528C7.63706 5.84478 7.71281 5.83378 7.78806 5.82303C7.79268 5.82222 7.79727 5.82122 7.80181 5.82003C7.80031 5.80553 7.79806 5.79103 7.79681 5.77603L7.76031 5.78003L7.60931 5.79828C7.58106 5.80203 7.55306 5.80503 7.52531 5.80853C7.51856 5.80928 7.51206 5.80953 7.50556 5.80928L7.34656 5.80003L7.25256 5.79478L7.09056 5.78528L6.85431 5.77228C6.79731 5.76928 6.74181 5.76553 6.68506 5.76153C6.69406 5.76078 6.70406 5.75928 6.71381 5.75928L6.90756 5.74828L7.16356 5.73378L7.37556 5.72178L7.50856 5.71378C7.51381 5.71353 7.52006 5.71428 7.52531 5.71478L7.67781 5.73303L7.78581 5.74603H7.79681C7.79806 5.73178 7.80031 5.71828 7.80181 5.70278C7.79256 5.70078 7.78206 5.69928 7.77281 5.69753C7.70606 5.68828 7.63981 5.67853 7.57306 5.66878C7.55919 5.66719 7.54536 5.66536 7.53156 5.66328C7.52391 5.66225 7.51638 5.66049 7.50906 5.65803C7.31031 5.59278 7.11281 5.52703 6.91431 5.46178C6.85907 5.44367 6.8039 5.42534 6.74881 5.40678C6.74405 5.40552 6.73956 5.4034 6.73556 5.40053L6.77031 5.40753L7.19456 5.49578C7.30806 5.51953 7.42331 5.54303 7.53681 5.56703C7.54364 5.56854 7.55033 5.57063 7.55681 5.57328C7.63681 5.60478 7.71606 5.63728 7.79681 5.66928L7.80881 5.67403C7.81431 5.66028 7.82031 5.64703 7.82631 5.63278C7.82224 5.63035 7.81797 5.62826 7.81356 5.62653C7.73406 5.59303 7.65481 5.55878 7.57556 5.52453C7.56934 5.5219 7.56332 5.51881 7.55756 5.51528C7.33331 5.36853 7.11006 5.22103 6.88556 5.07403C6.8826 5.07239 6.88024 5.06985 6.87881 5.06678L6.88781 5.07178C7.11131 5.18428 7.33506 5.29678 7.55906 5.40903C7.59606 5.42753 7.63206 5.44978 7.66506 5.47503C7.71956 5.51728 7.77506 5.55778 7.83056 5.59928C7.83431 5.60203 7.83756 5.60453 7.84156 5.60703L7.86906 5.57228L7.85931 5.56378L7.65606 5.40403C7.64906 5.39853 7.64356 5.39278 7.63756 5.38678C7.46056 5.18853 7.28331 4.99003 7.10681 4.79178C7.10426 4.78973 7.10228 4.78707 7.10106 4.78403C7.10631 4.78453 7.10831 4.78803 7.11056 4.79028C7.21781 4.88528 7.32406 4.98028 7.43056 5.07528L7.70606 5.32078C7.71106 5.32528 7.71581 5.33078 7.72031 5.33578L7.87806 5.53628C7.88206 5.54078 7.88506 5.54553 7.88956 5.55153L7.92581 5.52378C7.92356 5.52028 7.92056 5.51753 7.91881 5.51428C7.86731 5.44553 7.81606 5.37653 7.76406 5.30803C7.7587 5.29996 7.75378 5.29162 7.74931 5.28303C7.62931 5.04678 7.51031 4.80953 7.39106 4.57303C7.38881 4.56853 7.38656 4.56503 7.38606 4.56028C7.38831 4.56278 7.39056 4.56503 7.39206 4.56728L7.64756 4.95778L7.82831 5.23278C7.83456 5.24328 7.84156 5.25428 7.84556 5.26578C7.87931 5.34278 7.91181 5.42003 7.94456 5.49703C7.94681 5.50053 7.94831 5.50428 7.95056 5.50878L7.99206 5.49153L7.98756 5.48103C7.95631 5.40303 7.92581 5.32503 7.89406 5.24753C7.88531 5.22778 7.88206 5.20728 7.87781 5.18678C7.85056 5.05653 7.82431 4.92603 7.79706 4.79553C7.77031 4.67003 7.74481 4.54553 7.71856 4.41953C7.71806 4.41878 7.71856 4.41778 7.71956 4.41528L7.74156 4.48203C7.82006 4.71778 7.89781 4.95403 7.97481 5.19028C7.98131 5.20878 7.98356 5.22903 7.98631 5.24828C7.99556 5.31378 8.00481 5.37978 8.01531 5.44578C8.01706 5.45828 8.01781 5.47078 8.02031 5.48453L8.06381 5.47903V5.46253C8.05756 5.41028 8.05081 5.35778 8.04481 5.30578C8.04106 5.27528 8.03831 5.24553 8.03406 5.21578C8.03156 5.19577 8.03156 5.17554 8.03406 5.15553C8.03581 5.12153 8.03831 5.08778 8.03981 5.05403L8.05206 4.85028C8.05431 4.81378 8.05506 4.77678 8.05731 4.74028C8.06056 4.69278 8.06306 4.64453 8.06581 4.59678C8.06806 4.56178 8.06981 4.52653 8.07131 4.49178C8.07331 4.45053 8.07656 4.40953 8.08006 4.36853C8.08106 4.37978 8.08156 4.39128 8.08206 4.40328C8.08556 4.45353 8.08806 4.50378 8.09106 4.55428L8.10406 4.78328L8.11181 4.91178C8.11581 4.98603 8.11931 5.06053 8.12356 5.13478C8.12481 5.14603 8.12531 5.15653 8.12606 5.16753C8.12931 5.19653 8.12356 5.22528 8.12106 5.25403L8.10506 5.38503C8.10256 5.40978 8.09881 5.43453 8.09581 5.45953C8.09531 5.46553 8.09531 5.47203 8.09356 5.47928C8.10906 5.48153 8.12306 5.48303 8.13856 5.48503C8.14081 5.47428 8.14181 5.46428 8.14356 5.45378C8.15556 5.37253 8.16706 5.29128 8.17856 5.20953C8.17956 5.20353 8.18206 5.19728 8.18356 5.19103C8.26506 4.94653 8.34506 4.70178 8.42606 4.45678C8.43006 4.44553 8.43306 4.43478 8.43931 4.42403C8.43864 4.42973 8.43772 4.43541 8.43656 4.44103C8.40006 4.61803 8.36206 4.79453 8.32581 4.97103C8.30956 5.05378 8.29231 5.13678 8.27506 5.21953C8.27384 5.22639 8.27165 5.23304 8.26856 5.23928L8.17206 5.48053C8.17031 5.48403 8.16906 5.48778 8.16731 5.49228C8.18231 5.49803 8.19456 5.50378 8.20906 5.50953L8.21481 5.49753L8.31556 5.26078C8.31956 5.25278 8.32256 5.24503 8.32781 5.23853L8.76406 4.57303C8.76681 4.56953 8.76906 4.56603 8.77331 4.56353C8.77156 4.56703 8.77031 4.57053 8.76806 4.57403L8.40931 5.28653C8.40556 5.29328 8.40181 5.30003 8.39731 5.30603C8.34531 5.37528 8.29306 5.44453 8.24181 5.51328C8.23933 5.51722 8.23657 5.52098 8.23356 5.52453L8.26906 5.55228C8.27186 5.5493 8.27445 5.54613 8.27681 5.54278C8.32981 5.47528 8.38256 5.40753 8.43631 5.34003C8.44223 5.33244 8.44884 5.32541 8.45606 5.31903C8.65356 5.14253 8.85131 4.96628 9.04906 4.79028C9.05231 4.78753 9.05456 4.78478 9.05981 4.78328L9.05331 4.79128C8.97256 4.88253 8.89181 4.97328 8.80981 5.06403C8.71231 5.17278 8.61606 5.28128 8.51931 5.39003C8.51431 5.39553 8.50831 5.40028 8.50306 5.40478L8.29981 5.56453L8.28981 5.57253C8.29931 5.58453 8.30781 5.59603 8.31781 5.60803L8.32856 5.60003L8.53681 5.44403C8.54212 5.44024 8.54763 5.43674 8.55331 5.43353C8.79331 5.31303 9.03181 5.19303 9.27031 5.07253C9.27431 5.07078 9.27756 5.06928 9.28181 5.06928C9.27081 5.07653 9.26056 5.08353 9.24956 5.09028C9.03381 5.23203 8.81806 5.37378 8.60156 5.51553C8.59556 5.51903 8.59006 5.52253 8.58356 5.52528C8.50381 5.55978 8.42331 5.59378 8.34431 5.62803L8.33156 5.63303C8.33831 5.64703 8.34306 5.66028 8.34906 5.67428L8.36056 5.67053C8.44081 5.63878 8.52056 5.60553 8.60156 5.57478C8.62156 5.56678 8.64356 5.56328 8.66531 5.55878L9.03356 5.48228C9.14806 5.45878 9.26156 5.43478 9.37631 5.41103C9.38681 5.40878 9.39656 5.40653 9.40756 5.40453C9.41031 5.40453 9.41281 5.40403 9.41681 5.40553L9.38181 5.41703C9.13756 5.49778 8.89406 5.57828 8.64981 5.65803C8.63131 5.66453 8.61081 5.66628 8.59156 5.66928C8.53681 5.67753 8.48281 5.68478 8.42956 5.69253C8.41006 5.69528 8.39081 5.69828 8.37131 5.70078L8.35706 5.70328C8.35856 5.71803 8.36081 5.73178 8.36181 5.74778L8.39956 5.74378L8.53456 5.72778C8.56831 5.72353 8.60356 5.71878 8.63881 5.71553C8.65456 5.71428 8.67056 5.71578 8.68681 5.71653C8.72106 5.71803 8.75531 5.72103 8.79106 5.72253L8.99306 5.73453C9.02306 5.73628 9.05306 5.73753 9.08406 5.73953L9.29006 5.75128C9.33881 5.75428 9.38906 5.75653 9.43756 5.75953C9.44959 5.76022 9.4616 5.7613 9.47356 5.76278L9.43706 5.76578L9.28581 5.77403L9.09856 5.78503L8.95731 5.79253C8.89231 5.79653 8.82606 5.80028 8.76056 5.80453C8.72456 5.80603 8.68756 5.80953 8.65131 5.80978C8.63056 5.81028 8.60881 5.80628 8.58856 5.80403C8.54413 5.79882 8.49971 5.79349 8.45531 5.78803L8.37006 5.77778H8.36181C8.36081 5.79228 8.35856 5.80653 8.35706 5.82178C8.44518 5.83483 8.53335 5.84758 8.62156 5.86003C8.64756 5.86328 8.67031 5.87353 8.69481 5.88128L9.40581 6.11603C9.41043 6.117 9.41478 6.11896 9.41856 6.12178C9.41256 6.12078 9.40681 6.11978 9.40081 6.11928L8.78331 5.99053L8.62031 5.95653C8.61506 5.95503 8.60806 5.95303 8.60231 5.95028C8.52206 5.91853 8.44156 5.88603 8.36081 5.85378L8.35006 5.85003C8.34422 5.86372 8.33813 5.87731 8.33181 5.89078L8.34506 5.89703C8.42481 5.93103 8.50406 5.96478 8.58331 5.99903C8.58956 6.00178 8.59581 6.00503 8.60231 6.00953L9.26781 6.44553C9.27106 6.44803 9.27531 6.45103 9.27806 6.45578C9.27481 6.45378 9.27106 6.45253 9.26831 6.45053L8.92156 6.27653C8.80056 6.21503 8.67856 6.15403 8.55631 6.09253C8.54851 6.08867 8.54121 6.08388 8.53456 6.07828C8.46581 6.02703 8.39631 5.97553 8.32756 5.92378C8.3245 5.92119 8.32124 5.91885 8.31781 5.91678C8.30831 5.92828 8.29981 5.93953 8.28981 5.95153L8.29931 5.95903C8.36631 6.01253 8.43456 6.06603 8.50181 6.11928C8.50946 6.12476 8.51643 6.13114 8.52256 6.13828L9.05231 6.73103C9.05447 6.734 9.05616 6.73729 9.05731 6.74078C9.05456 6.73778 9.05081 6.73578 9.04806 6.73353C8.84931 6.55578 8.65031 6.37903 8.45106 6.20153C8.44654 6.19752 8.44251 6.19299 8.43906 6.18803L8.27706 5.98153C8.27481 5.97828 8.27206 5.97528 8.26931 5.97203C8.25781 5.98153 8.24656 5.99003 8.23506 6.00003C8.23606 6.00303 8.23831 6.00628 8.24031 6.00928L8.39756 6.21878C8.40205 6.22488 8.40606 6.23131 8.40956 6.23803C8.52881 6.47453 8.64781 6.71153 8.76681 6.94828C8.76875 6.95149 8.77003 6.95506 8.77056 6.95878H8.76981V6.95678Z" fill="#010088"/>
<path fill-rule="evenodd" clip-rule="evenodd" d="M8.76733 6.95679C8.76983 6.95929 8.77133 6.96204 8.77333 6.96429C8.77208 6.96479 8.77208 6.96554 8.77058 6.96579C8.77008 6.96229 8.76833 6.96004 8.76783 6.95679H8.76733Z" fill="#010088"/>
</svg>
