<svg width="24" height="24" viewBox="0 0 24 24" fill="none" xmlns="http://www.w3.org/2000/svg">
<path d="M10 18.2H10.2V18V9C10.2 8.15131 9.86286 7.33737 9.26274 6.73726C8.66263 6.13714 7.84869 5.8 7 5.8C6.15131 5.8 5.33737 6.13714 4.73726 6.73726C4.13714 7.33737 3.8 8.15131 3.8 9V18V18.2H4H10ZM20 18.2H20.2V18V9C20.2 8.15131 19.8629 7.33737 19.2627 6.73726C18.6626 6.13714 17.8487 5.8 17 5.8H11H10.5981L10.8404 6.12059C11.4638 6.94529 11.8 7.9628 11.8 9V18V18.2H12H20ZM15 8.8H14.8V9V12.8H13.2V7.2H16.8V8.8H15ZM7 4.2H17C18.273 4.2 19.4939 4.70571 20.3941 5.60589C21.2943 6.50606 21.8 7.72696 21.8 9V18C21.8 18.4774 21.6104 18.9352 21.2728 19.2728C20.9352 19.6104 20.4774 19.8 20 19.8H2.2V9C2.2 7.72696 2.70571 6.50606 3.60589 5.60589C4.50606 4.70571 5.72696 4.2 7 4.2ZM5.2 10.8V9.2H8.8V10.8H5.2Z" fill="black" stroke="white" stroke-width="0.4"/>
</svg>
