<svg width="24" height="24" viewBox="0 0 24 24" fill="none" xmlns="http://www.w3.org/2000/svg">
<path d="M18.6667 5.33329H16.0933C15.8287 4.83418 15.4816 4.38338 15.0667 3.99996H18.6667C18.8435 3.99996 19.013 3.92972 19.1381 3.8047C19.2631 3.67967 19.3333 3.5101 19.3333 3.33329C19.3333 3.15648 19.2631 2.98691 19.1381 2.86189C19.013 2.73686 18.8435 2.66663 18.6667 2.66663H6.66667C6.48986 2.66663 6.32029 2.73686 6.19526 2.86189C6.07024 2.98691 6 3.15648 6 3.33329C6 3.5101 6.07024 3.67967 6.19526 3.8047C6.32029 3.92972 6.48986 3.99996 6.66667 3.99996H11.7C12.2364 4.00043 12.766 4.12033 13.2503 4.35096C13.7346 4.58158 14.1615 4.91715 14.5 5.33329H6.66667C6.48986 5.33329 6.32029 5.40353 6.19526 5.52855C6.07024 5.65358 6 5.82315 6 5.99996C6 6.17677 6.07024 6.34634 6.19526 6.47136C6.32029 6.59639 6.48986 6.66663 6.66667 6.66663H15.1933C15.2862 6.99413 15.3333 7.33289 15.3333 7.67329C15.3351 8.63992 14.9537 9.56785 14.2727 10.2538C13.5917 10.9398 12.6666 11.328 11.7 11.3333H7.42667C7.29855 11.3335 7.17319 11.3705 7.0656 11.4401C6.958 11.5096 6.87272 11.6087 6.81997 11.7255C6.76722 11.8422 6.74923 11.9717 6.76815 12.0984C6.78708 12.2251 6.84211 12.3437 6.92667 12.44L14.7067 21.3333C14.7631 21.4034 14.8332 21.4613 14.9126 21.5036C14.9921 21.5459 15.0792 21.5716 15.1689 21.5793C15.2586 21.587 15.3489 21.5765 15.4343 21.5483C15.5198 21.5202 15.5987 21.475 15.6663 21.4156C15.7338 21.3561 15.7887 21.2836 15.8274 21.2024C15.8662 21.1212 15.8882 21.033 15.8919 20.9431C15.8957 20.8531 15.8812 20.7634 15.8494 20.6792C15.8176 20.5951 15.769 20.5182 15.7067 20.4533L8.9 12.6666H11.7067C12.445 12.6607 13.1728 12.4915 13.8381 12.1712C14.5033 11.8509 15.0895 11.3875 15.5546 10.814C16.0197 10.2406 16.3523 9.57142 16.5284 8.8544C16.7045 8.13738 16.7198 7.39028 16.5733 6.66663H18.6667C18.8435 6.66663 19.013 6.59639 19.1381 6.47136C19.2631 6.34634 19.3333 6.17677 19.3333 5.99996C19.3333 5.82315 19.2631 5.65358 19.1381 5.52855C19.013 5.40353 18.8435 5.33329 18.6667 5.33329Z" fill="black"/>
</svg>
