<svg width="300" height="64" viewBox="0 0 300 64" fill="none" xmlns="http://www.w3.org/2000/svg">
<path d="M64.1838 0L53.0903 63.4707H68.7005L79.794 0H64.1838ZM59.5087 8.00317L60.935 0H12.2029L9.66719 14.6593H36.1331L1.26783 55.7052L0 63.4707H49.9208L52.3772 48.8114H24.8019L59.5087 8.00317ZM136.846 0L109.113 31.9334L92.71 0H84.9445L73.851 63.4707H89.3819L94.0571 36.8463L104.754 57.6862L122.662 37.084L117.987 63.5499H133.597L144.691 0.0792393H136.846V0ZM282.171 0L266.244 23.3756L258.716 0H184.628L160.539 24.6434L164.897 0H149.762L138.669 63.4707H153.803L156.26 49.3661L160.935 44.691L172.9 63.4707H232.805L235.261 48.8114H204.675L206.339 39.8574H230.428L232.805 25.5151H208.875L210.856 14.7385H239.699L241.918 2.29794L255.468 41.9176L251.664 63.5499H267.274L271.078 42.1553L300 0H282.171ZM201.981 21.1569L206.735 21.2361L206.022 24.8811L201.347 24.8019L201.981 21.1569ZM201.585 45.7211L194.216 45.6418L194.849 41.9968H197.702L202.219 42.0761L201.585 45.7211ZM209.192 28.2092L208.637 31.5372L192.71 31.3788L191.997 34.9445L200.792 35.0238L200.238 38.3518L191.442 38.2726L186.529 38.1933L185.895 41.8384H186.133L190.808 41.9176L188.352 55.8637L173.138 31.6957L197.147 6.81458L194.532 21.1569L198.97 21.2361L198.336 24.8811L192.314 24.8019L191.759 28.0507L209.192 28.2092Z" fill="#FF6C37"/>
<path d="M184.152 34.8651H188.748L189.382 31.2993H184.786L184.152 34.8651Z" fill="#FF6C37"/>
</svg>
