<svg width="300" height="90" viewBox="0 0 300 90" fill="none" xmlns="http://www.w3.org/2000/svg">
<path fill-rule="evenodd" clip-rule="evenodd" d="M37.1179 79.9462C36.8596 79.5749 36.5783 79.13 36.2711 78.6124C35.965 78.0938 35.655 77.5733 35.344 77.048C35.0321 76.5237 34.7412 76.0262 34.4752 75.5545C34.2073 75.0838 33.9921 74.6953 33.8304 74.3891C33.6467 74.0581 33.4706 73.7155 33.3032 73.3634C33.1357 73.0123 33.0783 72.6965 33.1271 72.4172C33.1807 72.1119 33.3242 71.8699 33.5577 71.691C33.7911 71.512 34.0772 71.4221 34.415 71.4221C34.6838 71.4221 34.8972 71.4546 35.0541 71.5216C35.211 71.5867 35.321 71.6345 35.3832 71.6604C35.5315 71.9665 35.743 72.377 36.0147 72.8956C36.2874 73.4132 36.584 73.9672 36.9055 74.5585C37.226 75.1498 37.5494 75.7372 37.8786 76.3209C38.2077 76.9055 38.5024 77.4107 38.7645 77.8355C39.1635 77.4107 39.5769 76.9553 40.0065 76.4711C40.4361 75.986 40.858 75.5009 41.2742 75.0168C41.6895 74.5317 42.0904 74.0581 42.475 73.5921C42.8606 73.1271 43.2079 72.7099 43.516 72.3377C43.7045 72.1119 43.9293 71.9034 44.1924 71.7101C44.4555 71.5188 44.7962 71.4221 45.2143 71.4221C45.5779 71.4221 45.8697 71.491 46.0878 71.6307C46.306 71.7704 46.4371 71.8661 46.482 71.9196C46.3184 72.1588 46.0802 72.4746 45.7692 72.8659C45.4573 73.2582 45.1014 73.6888 44.7014 74.1605C44.3015 74.6322 43.8729 75.1297 43.4165 75.654C42.9601 76.1783 42.5008 76.6969 42.0396 77.2078C41.5785 77.7187 41.1317 78.2106 40.6982 78.6813C40.2639 79.153 39.8735 79.5749 39.5242 79.9462L38.6191 85.0841H36.2118L37.1179 79.9462Z" fill="#808285"/>
<path fill-rule="evenodd" clip-rule="evenodd" d="M50.0775 74.8052C50.8592 74.8052 51.5672 74.9372 52.2015 75.2032C52.8349 75.4692 53.3602 75.8366 53.7764 76.3092C54.1917 76.7809 54.4845 77.3378 54.6538 77.9817C54.8241 78.6257 54.8423 79.326 54.7083 80.0838C54.5773 80.8262 54.3132 81.5209 53.9161 82.1648C53.52 82.8088 53.0311 83.3666 52.4484 83.8373C51.8667 84.309 51.2113 84.6812 50.4822 84.9529C49.7541 85.2247 48.9982 85.3615 48.2165 85.3615C47.4338 85.3615 46.7258 85.2247 46.0943 84.9529C45.4609 84.6812 44.9357 84.309 44.5214 83.8373C44.1052 83.3666 43.8124 82.8088 43.6421 82.1648C43.4737 81.5209 43.4536 80.8262 43.5847 80.0838C43.7186 79.326 43.9837 78.6257 44.3798 77.9817C44.7768 77.3378 45.2667 76.7809 45.8485 76.3092C46.4292 75.8366 47.0856 75.4692 47.8137 75.2032C48.5399 74.9372 49.2948 74.8052 50.0775 74.8052ZM48.5705 83.3503C49.0288 83.3503 49.468 83.267 49.889 83.1006C50.309 82.9341 50.6841 82.7026 51.0132 82.404C51.3414 82.1046 51.6189 81.7592 51.8427 81.3678C52.0666 80.9765 52.2197 80.5478 52.302 80.0838C52.3843 79.6188 52.3824 79.1825 52.2992 78.7787C52.2159 78.3731 52.0609 78.0248 51.837 77.733C51.6122 77.4402 51.3175 77.2124 50.9568 77.046C50.5951 76.8795 50.1837 76.7972 49.7263 76.7972C49.2546 76.7972 48.8116 76.8795 48.3983 77.046C47.984 77.2124 47.6137 77.4402 47.2855 77.733C46.9574 78.0248 46.6809 78.3731 46.4541 78.7787C46.2273 79.1825 46.0743 79.6188 45.992 80.0838C45.9097 80.5478 45.9106 80.9765 45.9977 81.3678C46.0838 81.7592 46.2388 82.1046 46.4618 82.404C46.6856 82.7026 46.9755 82.9341 47.3305 83.1006C47.6855 83.267 48.0988 83.3503 48.5705 83.3503Z" fill="#808285"/>
<path fill-rule="evenodd" clip-rule="evenodd" d="M56.9411 76.1391C57.0061 75.7679 57.1621 75.4981 57.407 75.3325C57.651 75.167 57.9696 75.0847 58.361 75.0847C58.603 75.0847 58.8202 75.1134 59.0116 75.1737C59.2039 75.233 59.3311 75.2761 59.3943 75.3029L58.471 80.5413C58.3112 81.4445 58.4059 82.1305 58.7542 82.6022C59.1025 83.0739 59.7215 83.3093 60.6113 83.3093C61.5021 83.3093 62.2034 83.0739 62.7182 82.6022C63.2329 82.1305 63.5697 81.4445 63.7295 80.5413L64.5055 76.1391C64.5705 75.7679 64.7255 75.4981 64.9714 75.3325C65.2154 75.167 65.5264 75.0847 65.9043 75.0847C66.1607 75.0847 66.3846 75.1134 66.576 75.1737C66.7683 75.233 66.8955 75.2761 66.9577 75.3029L65.9464 81.0398C65.8268 81.7172 65.602 82.3228 65.2719 82.8615C64.9408 83.3992 64.5237 83.8537 64.0194 84.2259C63.5162 84.5981 62.944 84.8794 62.3029 85.0727C61.6619 85.265 60.9788 85.3617 60.2506 85.3617C59.5225 85.3617 58.8709 85.265 58.2988 85.0727C57.7266 84.8794 57.2568 84.5981 56.8904 84.2259C56.5239 83.8537 56.2684 83.3992 56.1201 82.8615C55.9718 82.3228 55.9575 81.7172 56.0771 81.0398L56.9411 76.1391Z" fill="#808285"/>
<path fill-rule="evenodd" clip-rule="evenodd" d="M68.3305 78.6496C68.5458 77.4278 69.0941 76.4815 69.9743 75.8118C70.8536 75.1411 71.9682 74.8062 73.3164 74.8062C74.166 74.8062 74.8358 74.9219 75.3285 75.1535C75.8194 75.386 76.0231 75.741 75.9389 76.2203C75.8997 76.4461 75.7964 76.6642 75.6308 76.8767C75.4653 77.0891 75.3381 77.2221 75.2472 77.2747C75.0367 77.1685 74.7707 77.0699 74.4511 76.9762C74.1296 76.8834 73.7536 76.8374 73.3221 76.8374C71.7444 76.8374 70.8105 77.6603 70.5206 79.3069L69.5026 85.0821H67.1967L68.3305 78.6496Z" fill="#808285"/>
<path fill-rule="evenodd" clip-rule="evenodd" d="M80.8478 86.7947C80.8976 86.8215 81.0067 86.8713 81.176 86.9449C81.3444 87.0167 81.5606 87.0904 81.8238 87.1641C82.0878 87.2368 82.4007 87.2999 82.7614 87.3526C83.1231 87.4061 83.5192 87.4329 83.9507 87.4329C84.409 87.4329 84.8702 87.3832 85.3333 87.2827C85.7954 87.1832 86.224 87.0052 86.6211 86.7459C87.0163 86.4866 87.3674 86.124 87.6717 85.66C87.9759 85.195 88.1922 84.598 88.3213 83.867L88.3635 83.6278C87.9903 83.9875 87.4822 84.3262 86.8393 84.6448C86.1973 84.9625 85.4634 85.1223 84.6415 85.1223C83.8866 85.1223 83.214 84.9998 82.6237 84.7539C82.0324 84.509 81.5472 84.1626 81.1684 83.7186C80.7875 83.2728 80.5244 82.7389 80.379 82.1151C80.2326 81.4913 80.2259 80.8004 80.3599 80.0436C80.4938 79.2868 80.7541 78.5893 81.1435 77.9521C81.531 77.3148 82.0103 76.7637 82.5768 76.2987C83.1441 75.8337 83.7919 75.4692 84.52 75.2032C85.2472 74.9372 86.0155 74.8052 86.8249 74.8052C87.5932 74.8052 88.284 74.9181 88.8993 75.1439C89.5135 75.3697 90.0225 75.7151 90.4244 76.1791C90.8291 76.6441 91.1018 77.2345 91.2453 77.9521C91.3879 78.6697 91.3745 79.5126 91.2042 80.4818L90.698 83.3503C90.5134 84.3989 90.2091 85.2983 89.7872 86.0484C89.3643 86.7985 88.8552 87.4128 88.2592 87.8902C87.6621 88.3696 86.9904 88.7169 86.2451 88.936C85.4978 89.1561 84.7066 89.2652 83.8703 89.2652C83.3173 89.2652 82.8208 89.2345 82.3797 89.1752C81.9386 89.1149 81.5511 89.0432 81.2152 88.9561C80.8794 88.87 80.6048 88.783 80.3905 88.6978C80.1762 88.6108 80.0212 88.5418 79.9226 88.4882L80.8478 86.7947ZM85.3228 83.2096C85.7801 83.2096 86.2126 83.1302 86.6183 82.9714C87.0249 82.8116 87.3856 82.5915 87.7061 82.314C88.0247 82.0347 88.2945 81.7036 88.5184 81.319C88.7404 80.9334 88.8935 80.5086 88.9748 80.0436C89.0542 79.592 89.0514 79.171 88.9662 78.7787C88.8792 78.3865 88.727 78.0477 88.5079 77.7626C88.2879 77.4785 88.0047 77.2545 87.6545 77.0957C87.3052 76.9359 86.9005 76.8556 86.4432 76.8556C85.9705 76.8556 85.5285 76.9398 85.1142 77.1053C84.7009 77.2718 84.3344 77.5014 84.0129 77.7923C83.6914 78.0851 83.4235 78.4238 83.2063 78.8084C82.991 79.194 82.8437 79.6054 82.7662 80.0436C82.5978 80.9994 82.7461 81.7658 83.2102 82.3447C83.6752 82.9217 84.3784 83.2096 85.3228 83.2096Z" fill="#808285"/>
<path fill-rule="evenodd" clip-rule="evenodd" d="M101.282 84.3454C101.162 84.4123 100.977 84.5051 100.727 84.6257C100.477 84.7434 100.17 84.8563 99.8078 84.9634C99.4451 85.0697 99.0318 85.1615 98.5658 85.2428C98.0999 85.3213 97.5966 85.3624 97.0579 85.3624C96.303 85.3624 95.618 85.2486 95.0037 85.0237C94.3894 84.797 93.8756 84.4621 93.4623 84.0172C93.048 83.5723 92.7572 83.0279 92.5868 82.3839C92.4184 81.74 92.407 80.9994 92.5543 80.1632C92.695 79.3662 92.9609 78.639 93.3532 77.9827C93.7455 77.3244 94.2287 76.7608 94.8047 76.2891C95.3797 75.8184 96.0246 75.452 96.7365 75.1946C97.4502 74.9343 98.2042 74.8052 99.0002 74.8052C99.7006 74.8052 100.305 74.8951 100.813 75.074C101.32 75.2539 101.734 75.4931 102.052 75.7906C102.37 76.0901 102.588 76.4384 102.707 76.8374C102.825 77.2354 102.845 77.6603 102.765 78.1109C102.684 78.5759 102.521 78.9978 102.279 79.3758C102.037 79.7537 101.671 80.0809 101.177 80.3526C100.684 80.6244 100.046 80.8368 99.2652 80.9899C98.4826 81.143 97.5114 81.2195 96.3518 81.2195C96.083 81.2195 95.8304 81.2157 95.5959 81.209C95.3606 81.2023 95.1099 81.1918 94.842 81.1793C94.8305 81.8558 95.0678 82.404 95.5538 82.8212C96.0389 83.2402 96.8015 83.4488 97.8396 83.4488C98.1908 83.4488 98.5189 83.423 98.8251 83.3703C99.1303 83.3168 99.4088 83.2508 99.6585 83.1704C99.9082 83.091 100.124 83.0116 100.308 82.9312C100.49 82.8518 100.626 82.7925 100.713 82.7523L101.282 84.3454ZM95.0161 79.6255C95.3233 79.6389 95.6189 79.6446 95.9012 79.6446H96.7508C97.4923 79.6446 98.1008 79.5987 98.5763 79.5059C99.05 79.4131 99.4298 79.2935 99.7111 79.1471C99.9924 79.0016 100.19 78.8361 100.304 78.6496C100.418 78.463 100.492 78.2716 100.527 78.0717C100.616 77.5674 100.477 77.1885 100.111 76.9369C99.7436 76.6843 99.2576 76.559 98.65 76.559C98.1516 76.559 97.698 76.6441 97.2895 76.8173C96.8828 76.9895 96.525 77.2182 96.2188 77.5043C95.9117 77.7904 95.6553 78.1186 95.4476 78.4898C95.241 78.862 95.0965 79.2399 95.0161 79.6255Z" fill="#808285"/>
<path fill-rule="evenodd" clip-rule="evenodd" d="M103.914 79.0476C104.031 78.3846 104.261 77.7904 104.603 77.2651C104.945 76.7417 105.367 76.2959 105.869 75.9313C106.372 75.5649 106.941 75.2864 107.575 75.0941C108.208 74.9018 108.882 74.8052 109.598 74.8052C110.311 74.8052 110.955 74.9018 111.528 75.0941C112.102 75.2864 112.574 75.5649 112.948 75.9313C113.321 76.2959 113.584 76.7417 113.734 77.2651C113.885 77.7904 113.9 78.3846 113.784 79.0476L112.72 85.0821H110.415L111.376 79.6255C111.536 78.7232 111.435 78.0362 111.073 77.5645C110.71 77.0928 110.098 76.8565 109.236 76.8565C108.359 76.8565 107.66 77.0928 107.14 77.5645C106.618 78.0362 106.278 78.7232 106.119 79.6255L105.156 85.0821H102.85L103.914 79.0476Z" fill="#808285"/>
<path fill-rule="evenodd" clip-rule="evenodd" d="M116.34 76.139C116.405 75.7678 116.561 75.498 116.806 75.3324C117.05 75.1669 117.368 75.0846 117.759 75.0846C118.002 75.0846 118.22 75.1133 118.411 75.1736C118.603 75.2329 118.73 75.276 118.793 75.3028L117.069 85.0821H114.764L116.34 76.139ZM118.469 70.6021C118.861 70.6021 119.167 70.735 119.39 71.001C119.613 71.267 119.69 71.5914 119.621 71.9769C119.553 72.3625 119.362 72.6869 119.045 72.9519C118.729 73.2189 118.375 73.3509 117.984 73.3509C117.594 73.3509 117.287 73.2189 117.065 72.9519C116.84 72.6869 116.763 72.3625 116.831 71.9769C116.9 71.5914 117.091 71.267 117.408 71.001C117.725 70.735 118.078 70.6021 118.469 70.6021Z" fill="#808285"/>
<path fill-rule="evenodd" clip-rule="evenodd" d="M128.302 84.3454C128.182 84.4123 127.997 84.5051 127.747 84.6257C127.497 84.7434 127.19 84.8563 126.828 84.9634C126.465 85.0697 126.052 85.1615 125.586 85.2428C125.12 85.3213 124.618 85.3624 124.078 85.3624C123.323 85.3624 122.638 85.2486 122.024 85.0237C121.41 84.797 120.896 84.4621 120.482 84.0172C120.068 83.5723 119.777 83.0279 119.607 82.3839C119.438 81.74 119.427 80.9994 119.574 80.1632C119.715 79.3662 119.981 78.639 120.373 77.9827C120.765 77.3244 121.249 76.7608 121.825 76.2891C122.4 75.8184 123.045 75.452 123.756 75.1946C124.47 74.9343 125.224 74.8052 126.02 74.8052C126.721 74.8052 127.325 74.8951 127.833 75.074C128.34 75.2539 128.753 75.4931 129.072 75.7906C129.39 76.0901 129.608 76.4384 129.727 76.8374C129.845 77.2354 129.865 77.6603 129.785 78.1109C129.704 78.5759 129.541 78.9978 129.299 79.3758C129.057 79.7537 128.691 80.0809 128.197 80.3526C127.704 80.6244 127.066 80.8368 126.285 80.9899C125.503 81.143 124.531 81.2195 123.372 81.2195C123.103 81.2195 122.85 81.2157 122.616 81.209C122.381 81.2023 122.13 81.1918 121.862 81.1793C121.85 81.8558 122.088 82.404 122.574 82.8212C123.059 83.2402 123.821 83.4488 124.86 83.4488C125.211 83.4488 125.539 83.423 125.845 83.3703C126.15 83.3168 126.429 83.2508 126.678 83.1704C126.928 83.091 127.144 83.0116 127.328 82.9312C127.51 82.8518 127.646 82.7925 127.733 82.7523L128.302 84.3454ZM122.036 79.6255C122.343 79.6389 122.639 79.6446 122.921 79.6446H123.771C124.512 79.6446 125.121 79.5987 125.596 79.5059C126.07 79.4131 126.45 79.2935 126.731 79.1471C127.012 79.0016 127.21 78.8361 127.324 78.6496C127.438 78.463 127.512 78.2716 127.547 78.0717C127.636 77.5674 127.497 77.1885 127.131 76.9369C126.764 76.6843 126.278 76.559 125.67 76.559C125.172 76.559 124.718 76.6441 124.309 76.8173C123.903 76.9895 123.546 77.2182 123.239 77.5043C122.932 77.7904 122.675 78.1186 122.468 78.4898C122.261 78.862 122.116 79.2399 122.036 79.6255Z" fill="#808285"/>
<path fill-rule="evenodd" clip-rule="evenodd" d="M130.807 83.3295C130.975 82.985 131.169 82.7266 131.388 82.5535C131.607 82.3803 131.892 82.2952 132.243 82.2952C132.445 82.2952 132.623 82.321 132.775 82.3736C132.927 82.4272 133.059 82.4865 133.168 82.5535C133.277 82.6195 133.368 82.6865 133.436 82.7525C133.506 82.8195 133.55 82.8721 133.57 82.9123L130.303 88.2502L128.737 87.613L130.807 83.3295Z" fill="#808285"/>
<path fill-rule="evenodd" clip-rule="evenodd" d="M149.352 85.0429C149.213 85.0697 148.994 85.0993 148.7 85.1328C148.403 85.1653 148.058 85.1988 147.661 85.2323C147.264 85.2648 146.821 85.2945 146.33 85.3213C145.841 85.348 145.333 85.3624 144.807 85.3624C143.755 85.3624 142.911 85.2725 142.276 85.0926C141.639 84.9137 141.156 84.6745 140.823 84.376C140.492 84.0765 140.291 83.732 140.218 83.3397C140.145 82.9484 140.146 82.5466 140.219 82.1342C140.314 81.5898 140.483 81.1123 140.724 80.7009C140.965 80.2895 141.302 79.9441 141.736 79.6657C142.169 79.3863 142.708 79.1768 143.352 79.038C143.998 78.8983 144.765 78.8285 145.655 78.8285C146.167 78.8285 146.649 78.8447 147.102 78.8792C147.554 78.9108 147.893 78.9414 148.118 78.9682C148.2 78.5032 148.19 78.1186 148.089 77.8124C147.988 77.5072 147.818 77.2679 147.578 77.0957C147.339 76.9225 147.037 76.8039 146.67 76.7379C146.305 76.6719 145.894 76.6374 145.434 76.6374C144.666 76.6374 144.034 76.7245 143.538 76.8967C143.042 77.0699 142.71 77.2153 142.541 77.3349C142.471 77.2679 142.383 77.1426 142.274 76.957C142.165 76.7704 142.134 76.5446 142.181 76.2796C142.214 76.094 142.296 75.9112 142.43 75.7313C142.562 75.5524 142.769 75.3926 143.049 75.2539C143.33 75.1133 143.694 75.0042 144.139 74.9257C144.585 74.8453 145.138 74.8052 145.799 74.8052C146.593 74.8052 147.304 74.8817 147.932 75.0348C148.559 75.1869 149.08 75.43 149.492 75.761C149.905 76.094 150.196 76.5312 150.364 77.0756C150.53 77.62 150.545 78.2774 150.41 79.0476L149.352 85.0429ZM147.847 80.6215C147.716 80.5947 147.47 80.5545 147.11 80.501C146.748 80.4493 146.196 80.4225 145.455 80.4225C144.538 80.4225 143.847 80.5584 143.381 80.8292C142.915 81.1028 142.63 81.5305 142.527 82.1151C142.485 82.3543 142.49 82.5734 142.543 82.7714C142.594 82.9723 142.717 83.1407 142.908 83.2804C143.099 83.4192 143.373 83.5263 143.732 83.599C144.09 83.6718 144.544 83.7091 145.097 83.7091C145.718 83.7091 146.214 83.6851 146.586 83.6392C146.958 83.5923 147.207 83.556 147.334 83.5292L147.847 80.6215Z" fill="#808285"/>
<path fill-rule="evenodd" clip-rule="evenodd" d="M158.116 73.3117C158.182 72.9395 158.337 72.6706 158.581 72.5051C158.827 72.3396 159.138 72.2563 159.515 72.2563C159.758 72.2563 159.978 72.286 160.177 72.3453C160.375 72.4046 160.506 72.4487 160.568 72.4755L160.108 75.0846H163.041C163.485 75.0846 163.783 75.1746 163.934 75.3535C164.084 75.5334 164.129 75.7946 164.069 76.14C164.029 76.3658 163.958 76.5743 163.857 76.7667C163.755 76.9609 163.678 77.0958 163.623 77.1761H159.739L158.957 81.6176C158.896 81.962 158.894 82.2443 158.949 82.4634C159.004 82.6825 159.105 82.8595 159.249 82.9915C159.395 83.1245 159.574 83.2173 159.787 83.27C160.001 83.3236 160.228 83.3503 160.471 83.3503C160.862 83.3503 161.236 83.2901 161.595 83.1705C161.952 83.0509 162.216 82.938 162.382 82.8318L163.046 84.3454C162.925 84.4248 162.755 84.5253 162.539 84.6449C162.322 84.7635 162.062 84.8764 161.76 84.9826C161.459 85.0898 161.127 85.1797 160.763 85.2515C160.399 85.3251 160.008 85.3625 159.591 85.3625C158.404 85.3625 157.561 85.0592 157.06 84.4555C156.56 83.8508 156.397 83.0575 156.57 82.0749L158.116 73.3117Z" fill="#808285"/>
<path fill-rule="evenodd" clip-rule="evenodd" d="M172.855 85.0429C172.715 85.0697 172.497 85.0993 172.202 85.1328C171.906 85.1653 171.56 85.1988 171.163 85.2323C170.766 85.2648 170.323 85.2945 169.832 85.3213C169.343 85.348 168.835 85.3624 168.309 85.3624C167.257 85.3624 166.414 85.2725 165.778 85.0926C165.142 84.9137 164.659 84.6745 164.326 84.376C163.995 84.0765 163.793 83.732 163.72 83.3397C163.647 82.9484 163.648 82.5466 163.721 82.1342C163.817 81.5898 163.985 81.1123 164.226 80.7009C164.467 80.2895 164.804 79.9441 165.239 79.6657C165.671 79.3863 166.211 79.1768 166.856 79.038C167.501 78.8983 168.268 78.8285 169.158 78.8285C169.67 78.8285 170.152 78.8447 170.604 78.8792C171.057 78.9108 171.396 78.9414 171.62 78.9682C171.703 78.5032 171.692 78.1186 171.592 77.8124C171.49 77.5072 171.32 77.2679 171.081 77.0957C170.842 76.9225 170.539 76.8039 170.173 76.7379C169.807 76.6719 169.396 76.6374 168.937 76.6374C168.168 76.6374 167.536 76.7245 167.04 76.8967C166.545 77.0699 166.213 77.2153 166.043 77.3349C165.973 77.2679 165.885 77.1426 165.776 76.957C165.667 76.7704 165.637 76.5446 165.684 76.2796C165.717 76.094 165.798 75.9112 165.932 75.7313C166.064 75.5524 166.27 75.3926 166.551 75.2539C166.833 75.1133 167.196 75.0042 167.641 74.9257C168.087 74.8453 168.64 74.8052 169.301 74.8052C170.095 74.8052 170.807 74.8817 171.435 75.0348C172.062 75.1869 172.582 75.43 172.994 75.761C173.408 76.094 173.699 76.5312 173.866 77.0756C174.032 77.62 174.048 78.2774 173.912 79.0476L172.855 85.0429ZM171.35 80.6215C171.219 80.5947 170.973 80.5545 170.612 80.501C170.25 80.4493 169.698 80.4225 168.958 80.4225C168.04 80.4225 167.349 80.5584 166.883 80.8292C166.417 81.1028 166.132 81.5305 166.03 82.1151C165.988 82.3543 165.993 82.5734 166.045 82.7714C166.097 82.9723 166.219 83.1407 166.411 83.2804C166.601 83.4192 166.876 83.5263 167.235 83.599C167.592 83.6718 168.047 83.7091 168.601 83.7091C169.221 83.7091 169.716 83.6851 170.089 83.6392C170.461 83.5923 170.711 83.556 170.837 83.5292L171.35 80.6215Z" fill="#808285"/>
<path fill-rule="evenodd" clip-rule="evenodd" d="M175.367 80.5421C175.53 79.6131 175.81 78.7922 176.205 78.0822C176.599 77.3713 177.083 76.7743 177.653 76.2892C178.225 75.805 178.876 75.4367 179.608 75.1841C180.34 74.9325 181.125 74.8062 181.96 74.8062C182.728 74.8062 183.413 74.9382 184.013 75.2042C184.614 75.4702 185.111 75.8347 185.509 76.2987C185.906 76.7647 186.181 77.3225 186.336 77.9722C186.491 78.6228 186.502 79.327 186.369 80.0848C186.233 80.8541 185.976 81.5621 185.6 82.2051C185.224 82.849 184.762 83.4029 184.215 83.8679C183.668 84.3339 183.058 84.6937 182.385 84.9539C181.713 85.2122 181.006 85.3414 180.264 85.3414C179.496 85.3414 178.841 85.196 178.298 84.9042C177.757 84.6114 177.354 84.2526 177.093 83.8287L176.168 89.0662H173.863L175.367 80.5421ZM180.295 83.3293C180.753 83.3293 181.19 83.247 181.602 83.0824C182.016 82.9159 182.387 82.6863 182.716 82.3945C183.043 82.1027 183.316 81.7573 183.535 81.3583C183.753 80.9603 183.904 80.5288 183.985 80.0647C184.065 79.6131 184.065 79.1912 183.986 78.7989C183.907 78.4076 183.754 78.0688 183.528 77.7837C183.302 77.4986 183.011 77.2728 182.656 77.1063C182.301 76.9407 181.895 76.8566 181.436 76.8566C180.977 76.8566 180.543 76.937 180.13 77.0968C179.718 77.2546 179.349 77.4756 179.022 77.754C178.698 78.0325 178.423 78.3683 178.199 78.7596C177.975 79.151 177.82 79.5854 177.736 80.0647C177.654 80.5288 177.655 80.9603 177.74 81.3583C177.825 81.7573 177.977 82.1027 178.195 82.3945C178.413 82.6863 178.7 82.9159 179.055 83.0824C179.41 83.247 179.823 83.3293 180.295 83.3293Z" fill="#808285"/>
<path fill-rule="evenodd" clip-rule="evenodd" d="M200.865 85.0429C200.725 85.0697 200.507 85.0993 200.212 85.1328C199.915 85.1653 199.57 85.1988 199.173 85.2323C198.776 85.2648 198.333 85.2945 197.843 85.3213C197.353 85.348 196.845 85.3624 196.319 85.3624C195.267 85.3624 194.423 85.2725 193.788 85.0926C193.152 84.9137 192.669 84.6745 192.336 84.376C192.005 84.0765 191.803 83.732 191.73 83.3397C191.657 82.9484 191.658 82.5466 191.731 82.1342C191.827 81.5898 191.995 81.1123 192.236 80.7009C192.477 80.2895 192.814 79.9441 193.248 79.6657C193.681 79.3863 194.221 79.1768 194.865 79.038C195.51 78.8983 196.278 78.8285 197.167 78.8285C197.679 78.8285 198.162 78.8447 198.614 78.8792C199.067 78.9108 199.405 78.9414 199.63 78.9682C199.713 78.5032 199.702 78.1186 199.602 77.8124C199.5 77.5072 199.33 77.2679 199.091 77.0957C198.851 76.9225 198.549 76.8039 198.183 76.7379C197.817 76.6719 197.406 76.6374 196.946 76.6374C196.178 76.6374 195.546 76.7245 195.051 76.8967C194.554 77.0699 194.222 77.2153 194.053 77.3349C193.983 77.2679 193.895 77.1426 193.786 76.957C193.677 76.7704 193.646 76.5446 193.693 76.2796C193.727 76.094 193.809 75.9112 193.942 75.7313C194.074 75.5524 194.281 75.3926 194.561 75.2539C194.842 75.1133 195.206 75.0042 195.651 74.9257C196.097 74.8453 196.65 74.8052 197.311 74.8052C198.105 74.8052 198.817 74.8817 199.445 75.0348C200.071 75.1869 200.592 75.43 201.004 75.761C201.418 76.094 201.708 76.5312 201.876 77.0756C202.042 77.62 202.058 78.2774 201.922 79.0476L200.865 85.0429ZM199.359 80.6215C199.228 80.5947 198.983 80.5545 198.622 80.501C198.26 80.4493 197.709 80.4225 196.968 80.4225C196.05 80.4225 195.359 80.5584 194.893 80.8292C194.427 81.1028 194.142 81.5305 194.04 82.1151C193.998 82.3543 194.002 82.5734 194.055 82.7714C194.107 82.9723 194.229 83.1407 194.421 83.2804C194.611 83.4192 194.886 83.5263 195.244 83.599C195.602 83.6718 196.058 83.7091 196.611 83.7091C197.231 83.7091 197.726 83.6851 198.099 83.6392C198.471 83.5923 198.72 83.556 198.847 83.5292L199.359 80.6215Z" fill="#808285"/>
<path fill-rule="evenodd" clip-rule="evenodd" d="M205.145 85.0822C204.754 83.5561 204.439 82.2616 204.202 81.1986C203.964 80.1376 203.782 79.2573 203.655 78.5598C203.529 77.8623 203.449 77.3246 203.414 76.9466C203.38 76.5687 203.377 76.2989 203.406 76.1391C203.455 75.8607 203.592 75.6148 203.817 75.4024C204.044 75.1909 204.352 75.0847 204.743 75.0847C205.04 75.0847 205.269 75.1106 205.427 75.1632C205.587 75.2168 205.691 75.2569 205.74 75.2837C205.8 75.8683 205.872 76.4883 205.958 77.1447C206.045 77.803 206.137 78.4574 206.239 79.1071C206.34 79.7577 206.443 80.3787 206.548 80.9699C206.653 81.5612 206.745 82.0884 206.824 82.5525C207.045 82.142 207.287 81.6703 207.549 81.1393C207.812 80.6083 208.083 80.06 208.365 79.4955C208.646 78.931 208.926 78.3608 209.203 77.7829C209.48 77.205 209.739 76.6577 209.978 76.1391C210.146 75.7946 210.344 75.5325 210.571 75.3536C210.798 75.1737 211.127 75.0847 211.56 75.0847C211.829 75.0847 212.066 75.1211 212.269 75.1938C212.471 75.2665 212.597 75.3172 212.646 75.343C212.716 75.941 212.795 76.5687 212.881 77.2251C212.967 77.8824 213.055 78.5292 213.146 79.1674C213.235 79.8046 213.326 80.416 213.419 80.9996C213.511 81.5842 213.598 82.1018 213.681 82.5525C214.193 81.6368 214.73 80.6341 215.293 79.5453C215.856 78.4574 216.388 77.3676 216.89 76.2798C217.084 75.8684 217.296 75.565 217.525 75.3737C217.755 75.1814 218.072 75.0847 218.476 75.0847C218.841 75.0847 219.126 75.144 219.335 75.2646C219.542 75.3823 219.659 75.4559 219.681 75.4827C219.495 75.9209 219.2 76.5247 218.795 77.2958C218.389 78.0651 217.939 78.8985 217.444 79.795C216.948 80.6915 216.43 81.6081 215.887 82.5429C215.344 83.4796 214.838 84.3264 214.367 85.0822H211.981C211.922 84.8028 211.849 84.3962 211.762 83.8576C211.675 83.3208 211.58 82.7324 211.476 82.0952C211.373 81.457 211.276 80.8044 211.184 80.1337C211.094 79.463 211.01 78.8478 210.934 78.2909C210.66 78.8478 210.359 79.463 210.032 80.1337C209.705 80.8044 209.381 81.457 209.059 82.0952C208.738 82.7324 208.442 83.3208 208.172 83.8576C207.902 84.3962 207.688 84.8028 207.532 85.0822H205.145Z" fill="#808285"/>
<path fill-rule="evenodd" clip-rule="evenodd" d="M228.066 85.0429C227.927 85.0697 227.708 85.0993 227.414 85.1328C227.117 85.1653 226.772 85.1988 226.375 85.2323C225.978 85.2648 225.535 85.2945 225.044 85.3213C224.555 85.348 224.047 85.3624 223.521 85.3624C222.469 85.3624 221.625 85.2725 220.99 85.0926C220.354 84.9137 219.87 84.6745 219.538 84.376C219.206 84.0765 219.004 83.732 218.932 83.3397C218.859 82.9484 218.86 82.5466 218.933 82.1342C219.028 81.5898 219.197 81.1123 219.438 80.7009C219.679 80.2895 220.016 79.9441 220.45 79.6657C220.883 79.3863 221.422 79.1768 222.066 79.038C222.712 78.8983 223.479 78.8285 224.369 78.8285C224.881 78.8285 225.363 78.8447 225.816 78.8792C226.268 78.9108 226.607 78.9414 226.832 78.9682C226.914 78.5032 226.904 78.1186 226.803 77.8124C226.702 77.5072 226.532 77.2679 226.292 77.0957C226.053 76.9225 225.751 76.8039 225.384 76.7379C225.019 76.6719 224.607 76.6374 224.148 76.6374C223.38 76.6374 222.747 76.7245 222.253 76.8967C221.756 77.0699 221.424 77.2153 221.255 77.3349C221.185 77.2679 221.097 77.1426 220.988 76.957C220.879 76.7704 220.848 76.5446 220.895 76.2796C220.928 76.094 221.01 75.9112 221.144 75.7313C221.276 75.5524 221.483 75.3926 221.763 75.2539C222.044 75.1133 222.408 75.0042 222.853 74.9257C223.299 74.8453 223.852 74.8052 224.513 74.8052C225.307 74.8052 226.019 74.8817 226.646 75.0348C227.273 75.1869 227.794 75.43 228.206 75.761C228.619 76.094 228.91 76.5312 229.078 77.0756C229.244 77.62 229.259 78.2774 229.123 79.0476L228.066 85.0429ZM226.561 80.6215C226.43 80.5947 226.184 80.5545 225.824 80.501C225.462 80.4493 224.911 80.4225 224.169 80.4225C223.252 80.4225 222.561 80.5584 222.095 80.8292C221.629 81.1028 221.344 81.5305 221.241 82.1151C221.199 82.3543 221.204 82.5734 221.257 82.7714C221.308 82.9723 221.431 83.1407 221.622 83.2804C221.813 83.4192 222.087 83.5263 222.446 83.599C222.804 83.6718 223.258 83.7091 223.812 83.7091C224.432 83.7091 224.928 83.6851 225.3 83.6392C225.672 83.5923 225.921 83.556 226.048 83.5292L226.561 80.6215Z" fill="#808285"/>
<path fill-rule="evenodd" clip-rule="evenodd" d="M231.598 76.1391C231.661 75.7803 231.815 75.5153 232.062 75.343C232.308 75.1699 232.62 75.0847 232.998 75.0847C233.24 75.0847 233.461 75.1134 233.659 75.1737C233.858 75.233 233.988 75.2761 234.051 75.3029L233.113 80.6207C232.976 81.4043 233.077 82.0281 233.42 82.4931C233.763 82.9581 234.379 83.1906 235.269 83.1906C236.091 83.1906 236.781 82.9543 237.336 82.4826C237.89 82.0128 238.248 81.3182 238.41 80.4026L239.162 76.1391C239.225 75.7803 239.379 75.5153 239.626 75.343C239.872 75.1699 240.183 75.0847 240.561 75.0847C240.804 75.0847 241.024 75.1134 241.222 75.1737C241.421 75.233 241.552 75.2761 241.614 75.3029L240.076 84.0269C239.91 84.9693 239.642 85.7692 239.269 86.4275C238.897 87.0838 238.437 87.6254 237.891 88.0502C237.344 88.475 236.723 88.7831 236.029 88.9764C235.334 89.1687 234.582 89.2653 233.773 89.2653C233.22 89.2653 232.72 89.2347 232.271 89.1754C231.824 89.1151 231.428 89.0462 231.085 88.9659C230.742 88.8864 230.463 88.8099 230.247 88.7372C230.03 88.6645 229.878 88.607 229.79 88.5678C229.947 88.2884 230.099 88.0071 230.243 87.721C230.388 87.435 230.533 87.1537 230.675 86.8753C230.762 86.9145 230.902 86.9671 231.093 87.0341C231.283 87.1011 231.515 87.1642 231.787 87.2236C232.059 87.2829 232.371 87.3326 232.721 87.3728C233.071 87.413 233.449 87.4331 233.854 87.4331C234.379 87.4331 234.861 87.3757 235.3 87.2628C235.737 87.1499 236.125 86.9537 236.465 86.6753C236.804 86.3969 237.091 86.0285 237.326 85.5702C237.562 85.1128 237.741 84.5378 237.864 83.847C237.525 84.2317 237.051 84.5407 236.436 84.7742C235.821 85.0067 235.171 85.1225 234.484 85.1225C233.837 85.1225 233.252 85.0325 232.732 84.8536C232.209 84.6737 231.783 84.4154 231.452 84.0767C231.12 83.738 230.889 83.3169 230.756 82.8118C230.621 82.3066 230.612 81.7297 230.726 81.079L231.598 76.1391Z" fill="#808285"/>
<path fill-rule="evenodd" clip-rule="evenodd" d="M243.576 82.4137C243.994 82.4137 244.329 82.5601 244.581 82.8519C244.833 83.1447 244.922 83.4958 244.849 83.9072C244.779 84.3062 244.567 84.6545 244.21 84.954C243.855 85.2515 243.467 85.4018 243.049 85.4018C242.631 85.4018 242.293 85.2515 242.036 84.954C241.779 84.6545 241.686 84.3062 241.756 83.9072C241.828 83.4958 242.046 83.1447 242.406 82.8519C242.768 82.5601 243.158 82.4137 243.576 82.4137ZM244.156 72.4745C244.219 72.1157 244.377 71.8507 244.63 71.6785C244.882 71.5063 245.191 71.4192 245.555 71.4192C245.798 71.4192 246.017 71.4527 246.214 71.5187C246.412 71.5847 246.542 71.6316 246.605 71.6584L245.011 80.701H242.706L244.156 72.4745Z" fill="#808285"/>
<path d="M64.1838 0L53.0903 63.4707H68.7005L79.794 0H64.1838ZM59.5087 8.00317L60.935 0H12.2029L9.66719 14.6593H36.1331L1.26783 55.7052L0 63.4707H49.9208L52.3772 48.8114H24.8019L59.5087 8.00317ZM136.846 0L109.113 31.9334L92.71 0H84.9445L73.851 63.4707H89.3819L94.0571 36.8463L104.754 57.6862L122.662 37.084L117.987 63.5499H133.597L144.691 0.0792393H136.846V0ZM282.171 0L266.244 23.3756L258.716 0H184.628L160.539 24.6434L164.897 0H149.762L138.669 63.4707H153.803L156.26 49.3661L160.935 44.691L172.9 63.4707H232.805L235.261 48.8114H204.675L206.339 39.8574H230.428L232.805 25.5151H208.875L210.856 14.7385H239.699L241.918 2.29794L255.468 41.9176L251.664 63.5499H267.274L271.078 42.1553L300 0H282.171ZM201.981 21.1569L206.735 21.2361L206.022 24.8811L201.347 24.8019L201.981 21.1569ZM201.585 45.7211L194.216 45.6418L194.849 41.9968H197.702L202.219 42.0761L201.585 45.7211ZM209.192 28.2092L208.637 31.5372L192.71 31.3788L191.997 34.9445L200.792 35.0238L200.238 38.3518L191.442 38.2726L186.529 38.1933L185.895 41.8384H186.133L190.808 41.9176L188.352 55.8637L173.138 31.6957L197.147 6.81458L194.532 21.1569L198.97 21.2361L198.336 24.8811L192.314 24.8019L191.759 28.0507L209.192 28.2092Z" fill="#FF6C37"/>
<path d="M184.152 34.8653H188.748L189.382 31.2996H184.786L184.152 34.8653Z" fill="#FF6C37"/>
</svg>
